<svg id="Education" xmlns="http://www.w3.org/2000/svg" width="24" height="24" viewBox="0 0 24 24">
  <rect id="Rectangle_20" data-name="Rectangle 20" width="24" height="24" fill="none"/>
  <g id="Education-2" data-name="Education" transform="translate(2 4)">
    <path id="Path_18" data-name="Path 18" d="M148.36,155.81a3.37,3.37,0,0,1-1.09-.18l-7.75-2.69a1.7,1.7,0,0,1-1.16-1.63,1.72,1.72,0,0,1,1.16-1.63l7.75-2.68a3.379,3.379,0,0,1,1.09-.19,3.44,3.44,0,0,1,1.1.19l7.74,2.68a1.71,1.71,0,0,1,1.16,1.63,1.69,1.69,0,0,1-1.16,1.63l-7.75,2.69A3.37,3.37,0,0,1,148.36,155.81Z" transform="translate(-138.36 -146.81)" fill="#151534"/>
    <path id="Path_19" data-name="Path 19" d="M149.62,157.25a3.63,3.63,0,0,1-1.26.22,3.59,3.59,0,0,1-1.26-.22l-4.73-1.63a.88.88,0,0,0-1.17.82v2.08a2.63,2.63,0,0,0,1.73,2.47l4.52,1.66a2.59,2.59,0,0,0,1.82,0L153.8,161a2.64,2.64,0,0,0,1.72-2.47v-2.08a.88.88,0,0,0-1.16-.83Z" transform="translate(-138.36 -146.81)" fill="#151534"/>
  </g>
</svg>
