<svg id="paypal-logo" xmlns="http://www.w3.org/2000/svg" width="80.641" height="21.83" viewBox="0 0 80.641 21.83">
  <g id="Group_26489" data-name="Group 26489" transform="translate(0 1.357)">
    <g id="Group_26488" data-name="Group 26488">
      <path id="Path_15408" data-name="Path 15408" d="M14.453,21.429a3.269,3.269,0,0,0-1.2-1.294,5.62,5.62,0,0,0-1.908-.7,15.6,15.6,0,0,0-2.593-.2l-4.586,0a1.149,1.149,0,0,0-1.056.838L.024,33.511a.65.65,0,0,0,.664.835h2.2a1.124,1.124,0,0,0,1.054-.835l.753-3.263a1.125,1.125,0,0,1,1.053-.833h.629a10.4,10.4,0,0,0,6.26-1.651,5.141,5.141,0,0,0,2.243-4.356A4.085,4.085,0,0,0,14.453,21.429ZM9.717,25.82a4.619,4.619,0,0,1-2.777.729H6.4a.654.654,0,0,1-.667-.838L6.4,22.857a1.112,1.112,0,0,1,1.046-.833l.72,0a3.515,3.515,0,0,1,1.91.427,1.452,1.452,0,0,1,.633,1.309A2.378,2.378,0,0,1,9.717,25.82Z" transform="translate(0 -19.229)" fill="#4ab9b1"/>
    </g>
  </g>
  <g id="Group_26491" data-name="Group 26491" transform="translate(75.739 0)">
    <g id="Group_26490" data-name="Group 26490">
      <path id="Path_15409" data-name="Path 15409" d="M48.673,20.79l-.138.042-.184.026-.226-.035-.115-.112-.053-.176,0-.264v-.977h.734v-.3h-.734v-.609h-.363v.609h-.246v.3h.246V20.43l.17.563.5.179.21-.018.222-.043V20.79Z" transform="translate(-47.345 -18.381)" fill="#4ab9b1"/>
    </g>
  </g>
  <g id="Group_26493" data-name="Group 26493" transform="translate(77.516 0.549)">
    <g id="Group_26492" data-name="Group 26492">
      <path id="Path_15410" data-name="Path 15410" d="M51.412,18.94l-.525-.216L50.5,18.8l-.394.266-.229-.254-.371-.088-.357.078-.338.218v-.237h-.357V20.92h.355V19.326l.3-.186.3-.074.243.043.12.123.053.2.018.264v1.221H50.2V19.556l-.006-.114-.006-.1.3-.194.3-.075.235.043.128.123.045.206.024.261v1.221h.358V19.537Z" transform="translate(-48.456 -18.724)" fill="#4ab9b1"/>
    </g>
  </g>
  <g id="Group_26495" data-name="Group 26495" transform="translate(13.656 4.777)">
    <g id="Group_26494" data-name="Group 26494">
      <path id="Path_15411" data-name="Path 15411" d="M19.926,22.068a8.336,8.336,0,0,0-3.926-.7,17.35,17.35,0,0,0-2.657.206c-.657.1-.721.12-1.126.208A1.288,1.288,0,0,0,11.25,22.8L10.981,23.9c-.152.705.254.678.424.619a11.416,11.416,0,0,1,1.313-.387,9.416,9.416,0,0,1,2.057-.275,5.423,5.423,0,0,1,2,.282,1.009,1.009,0,0,1,.662,1l-.038.31-.317.2c-1.246.078-2.147.194-3.239.352a10.048,10.048,0,0,0-2.785.766,4.329,4.329,0,0,0-1.891,1.491,4.063,4.063,0,0,0-.629,2.3,2.714,2.714,0,0,0,.894,2.086,3.358,3.358,0,0,0,2.315.79,6.314,6.314,0,0,0,1.379-.128l1.064-.366.9-.5.829-.547.011.016-.083.352,0,.014v0a.653.653,0,0,0,.587.822l.008.01h2.04l.029-.013a1.136,1.136,0,0,0,.945-.822l1.6-6.932.083-.565.038-.53A2.318,2.318,0,0,0,19.926,22.068Zm-3.542,7.794-.342.451-.864.446a3.076,3.076,0,0,1-1.149.248,2.636,2.636,0,0,1-1.251-.238l-.424-.824a1.647,1.647,0,0,1,.322-1.072l.931-.633a8.053,8.053,0,0,1,1.448-.326c.5-.062,1.494-.176,1.624-.179L16.83,28C16.8,28.153,16.518,29.33,16.384,29.862Z" transform="translate(-8.537 -21.367)" fill="#4ab9b1"/>
    </g>
  </g>
  <g id="Group_26497" data-name="Group 26497" transform="translate(53.551 4.785)">
    <g id="Group_26496" data-name="Group 26496">
      <path id="Path_15412" data-name="Path 15412" d="M44.864,22.074a8.352,8.352,0,0,0-3.924-.7,16.724,16.724,0,0,0-2.656.211c-.659.1-.725.117-1.131.2A1.284,1.284,0,0,0,36.19,22.8l-.269,1.1c-.15.705.246.673.432.619a13.017,13.017,0,0,1,1.3-.389,9.823,9.823,0,0,1,2.062-.275,5.394,5.394,0,0,1,1.993.283,1.007,1.007,0,0,1,.662,1l-.034.309-.314.2c-1.259.075-2.161.19-3.243.349A10.052,10.052,0,0,0,36,26.766a4.326,4.326,0,0,0-1.891,1.494,4.013,4.013,0,0,0-.63,2.288,2.684,2.684,0,0,0,.9,2.089,3.361,3.361,0,0,0,2.31.8,6.12,6.12,0,0,0,1.377-.13l1.061-.362.909-.5.822-.554.014.018-.075.355-.008.006,0,.006a.643.643,0,0,0,.584.822l0,.008h2.038l.034-.011a1.124,1.124,0,0,0,.934-.829l1.606-6.922.085-.568.046-.531A2.314,2.314,0,0,0,44.864,22.074ZM41.33,29.868l-.357.456-.856.443a3.111,3.111,0,0,1-1.144.248,2.558,2.558,0,0,1-1.249-.24l-.429-.821a1.717,1.717,0,0,1,.314-1.075,2.25,2.25,0,0,1,.941-.632A8.16,8.16,0,0,1,40,27.923c.5-.062,1.488-.179,1.616-.181l.155.267C41.744,28.161,41.461,29.334,41.33,29.868Z" transform="translate(-33.475 -21.372)" fill="#4ab9b1"/>
    </g>
  </g>
  <g id="Group_26499" data-name="Group 26499" transform="translate(39.887 1.405)">
    <g id="Group_26498" data-name="Group 26498">
      <path id="Path_15413" data-name="Path 15413" d="M39.388,21.46a3.4,3.4,0,0,0-1.209-1.3,5.391,5.391,0,0,0-1.908-.7,15.1,15.1,0,0,0-2.584-.2l-4.593,0a1.141,1.141,0,0,0-1.048.835L24.957,33.545a.651.651,0,0,0,.662.833l2.2,0a1.139,1.139,0,0,0,1.056-.832l.744-3.265a1.139,1.139,0,0,1,1.056-.833H31.3A10.456,10.456,0,0,0,37.577,27.8a5.2,5.2,0,0,0,2.233-4.362A4.285,4.285,0,0,0,39.388,21.46Zm-4.737,4.4a4.677,4.677,0,0,1-2.771.72h-.547a.658.658,0,0,1-.672-.837l.665-2.849a1.117,1.117,0,0,1,1.049-.833l.712,0a3.556,3.556,0,0,1,1.91.426,1.464,1.464,0,0,1,.638,1.309A2.411,2.411,0,0,1,34.651,25.858Z" transform="translate(-24.934 -19.259)" fill="#4ab9b1"/>
    </g>
  </g>
  <g id="Group_26501" data-name="Group 26501" transform="translate(66.541 1.524)">
    <g id="Group_26500" data-name="Group 26500">
      <path id="Path_15414" data-name="Path 15414" d="M48.229,20.16a.642.642,0,0,0-.659-.825H45.6a1.114,1.114,0,0,0-.944.667l-.109.17-.1.435-2.75,12.5-.09.384,0,.01a.623.623,0,0,0,.552.781l.034.046h2.043a1.115,1.115,0,0,0,.947-.678l.106-.16,2.94-13.327Z" transform="translate(-41.595 -19.334)" fill="#4ab9b1"/>
    </g>
  </g>
  <g id="Group_26503" data-name="Group 26503" transform="translate(27.024 4.945)">
    <g id="Group_26502" data-name="Group 26502">
      <path id="Path_15415" data-name="Path 15415" d="M29.839,21.472c-.52.006-2.633,0-2.633,0a1.9,1.9,0,0,0-1.382.838s-3.145,5.4-3.451,5.94l-.365,0-.979-5.9a1.21,1.21,0,0,0-1.2-.861l-1.968,0a.649.649,0,0,0-.657.838s1.494,8.5,1.793,10.5c.139,1.1-.018,1.3-.018,1.3l-1.945,3.388c-.288.461-.133.837.339.837l2.275,0a1.838,1.838,0,0,0,1.377-.835l8.751-14.8S30.622,21.454,29.839,21.472Z" transform="translate(-16.893 -21.472)" fill="#4ab9b1"/>
    </g>
  </g>
</svg>
