<svg xmlns="http://www.w3.org/2000/svg" width="30" height="23.323" viewBox="0 0 30 23.323">
  <g id="camera" transform="translate(0 -34.2)">
    <path id="Path_567" data-name="Path 567" d="M27.813,37.319H19.872l-1.6-2.694a.87.87,0,0,0-.747-.425H12.478a.87.87,0,0,0-.747.425l-1.6,2.694H7.522v-.594a.87.87,0,0,0-.87-.87H3.435a.869.869,0,0,0-.87.87v.594H2.187A2.186,2.186,0,0,0,0,39.505V55.336a2.186,2.186,0,0,0,2.186,2.187H27.813A2.187,2.187,0,0,0,30,55.336V39.505a2.186,2.186,0,0,0-2.187-2.186ZM15,53.644a6.224,6.224,0,1,1,6.224-6.224A6.224,6.224,0,0,1,15,53.644ZM26.449,41.826H23.725a.87.87,0,0,1,0-1.739H26.45a.87.87,0,1,1,0,1.739Z" fill="#3f4394"/>
    <circle id="Ellipse_27" data-name="Ellipse 27" cx="4.827" cy="4.827" r="4.827" transform="translate(10.173 42.491)" fill="#3f4394"/>
  </g>
</svg>
