<svg xmlns="http://www.w3.org/2000/svg" xmlns:xlink="http://www.w3.org/1999/xlink" width="43.75" height="43.75" viewBox="0 0 43.75 43.75">
  <defs>
    <clipPath id="clip-path">
      <rect id="Rectangle_8081" data-name="Rectangle 8081" width="43.75" height="43.75" transform="translate(0)" fill="#4ab9b1" stroke="#707070" stroke-width="1"/>
    </clipPath>
  </defs>
  <g id="Mask_Group_1477" data-name="Mask Group 1477" clip-path="url(#clip-path)">
    <g id="dossier-line" transform="translate(0)">
      <path id="Path_15244" data-name="Path 15244" d="M0,0H43.75V43.75H0Z" fill="none"/>
      <path id="Path_15245" data-name="Path 15245" d="M29.521,2.667V6.312H34.99a1.824,1.824,0,0,1,1.823,1.823V37.3a1.824,1.824,0,0,1-1.823,1.823H5.823A1.824,1.824,0,0,1,4,37.3V8.135A1.824,1.824,0,0,1,5.823,6.312h5.469V2.667ZM11.292,9.958H7.646V35.479H33.167V9.958H29.521V13.6H11.292Zm10.937,9.115v3.646h3.646v3.646H22.227l0,3.646H18.583l0-3.646H14.937V22.719h3.646V19.073Zm3.646-12.76H14.937V9.958H25.875Z" transform="translate(1.469 0.979)" fill="#4ab9b1"/>
    </g>
  </g>
</svg>
