<svg xmlns="http://www.w3.org/2000/svg" xmlns:xlink="http://www.w3.org/1999/xlink" width="26" height="26" viewBox="0 0 26 26">
  <defs>
    <clipPath id="clip-path">
      <rect id="Rectangle_8264" data-name="Rectangle 8264" width="24" height="24" transform="translate(1643 952)" fill="#fff" stroke="#707070" stroke-width="1"/>
    </clipPath>
    <clipPath id="clip-path-2">
      <rect id="Rectangle_8265" data-name="Rectangle 8265" width="6" height="6" transform="translate(1660.34 968.34)" fill="#fff" stroke="#707070" stroke-width="1"/>
    </clipPath>
  </defs>
  <g id="Group_26602" data-name="Group 26602" transform="translate(-1645 -953)">
    <g id="Mask_Group_1583" data-name="Mask Group 1583" transform="translate(2 1)" clip-path="url(#clip-path)">
      <g id="fi-rr-calendar" transform="translate(1643 952)">
        <path id="Path_15549" data-name="Path 15549" d="M19,2H18V1a1,1,0,0,0-2,0V2H8V1A1,1,0,0,0,6,1V2H5A5.006,5.006,0,0,0,0,7V19a5.006,5.006,0,0,0,5,5H19a5.006,5.006,0,0,0,5-5V7A5.006,5.006,0,0,0,19,2ZM2,7A3,3,0,0,1,5,4H19a3,3,0,0,1,3,3V8H2ZM19,22H5a3,3,0,0,1-3-3V10H22v9A3,3,0,0,1,19,22Z" transform="translate(0 0)" fill="#fff"/>
        <circle id="Ellipse_98" data-name="Ellipse 98" cx="1.5" cy="1.5" r="1.5" transform="translate(10.5 13.5)" fill="#fff"/>
        <circle id="Ellipse_99" data-name="Ellipse 99" cx="1.5" cy="1.5" r="1.5" transform="translate(5.5 13.5)" fill="#fff"/>
        <circle id="Ellipse_100" data-name="Ellipse 100" cx="1.5" cy="1.5" r="1.5" transform="translate(15.5 13.5)" fill="#fff"/>
      </g>
    </g>
    <circle id="Ellipse_101" data-name="Ellipse 101" cx="5" cy="5" r="5" transform="translate(1661 969)" fill="#3f3fa0"/>
    <g id="Ellipse_102" data-name="Ellipse 102" transform="translate(1661 969)" fill="none" stroke="#fff" stroke-width="1">
      <circle cx="5" cy="5" r="5" stroke="none"/>
      <circle cx="5" cy="5" r="4.5" fill="none"/>
    </g>
    <g id="Mask_Group_1584" data-name="Mask Group 1584" transform="translate(2.66 2.66)" clip-path="url(#clip-path-2)">
      <path id="fi-rr-plus-small" d="M7.87,5.759H6.463V4.352A.352.352,0,0,0,6.111,4h0a.352.352,0,0,0-.352.352V5.759H4.352A.352.352,0,0,0,4,6.111H4a.352.352,0,0,0,.352.352H5.759V7.87a.352.352,0,0,0,.352.352h0a.352.352,0,0,0,.352-.352V6.463H7.87a.352.352,0,0,0,.352-.352h0A.352.352,0,0,0,7.87,5.759Z" transform="translate(1657.445 965.445)" fill="#fff"/>
    </g>
  </g>
</svg>
