<svg xmlns="http://www.w3.org/2000/svg" xmlns:xlink="http://www.w3.org/1999/xlink" width="59" height="59" viewBox="0 0 59 59">
  <defs>
    <clipPath id="clip-path">
      <rect id="Rectangle_8651" data-name="Rectangle 8651" width="59" height="59" transform="translate(1210 471)" fill="#3f4394" stroke="#707070" stroke-width="1"/>
    </clipPath>
  </defs>
  <g id="Mask_Group_1762" data-name="Mask Group 1762" transform="translate(-1210 -471)" clip-path="url(#clip-path)">
    <g id="doctor_2_" data-name="doctor (2)" transform="translate(1210 471)">
      <g id="Group_27536" data-name="Group 27536">
        <g id="Group_27535" data-name="Group 27535">
          <path id="Path_15947" data-name="Path 15947" d="M54.916,42.523A29.27,29.27,0,0,0,38.3,29.39a1.962,1.962,0,0,0-1.961.476,42.979,42.979,0,0,1-6.814,5.288,50.881,50.881,0,0,1-6.868-5.286,1.956,1.956,0,0,0-1.965-.478A29.243,29.243,0,0,0,4.084,42.523a1.96,1.96,0,0,0,0,1.99,29.551,29.551,0,0,0,50.832,0A1.964,1.964,0,0,0,54.916,42.523ZM29.5,55.057A25.615,25.615,0,0,1,8.092,43.518,25.3,25.3,0,0,1,20.787,33.5a65.193,65.193,0,0,0,7.666,5.642,1.96,1.96,0,0,0,2.02.037,48.962,48.962,0,0,0,7.743-5.678A25.336,25.336,0,0,1,50.906,43.518,25.62,25.62,0,0,1,29.5,55.057Z" fill="#3f4394"/>
        </g>
      </g>
      <g id="Group_27538" data-name="Group 27538">
        <g id="Group_27537" data-name="Group 27537">
          <path id="Path_15948" data-name="Path 15948" d="M22.889,30.141a1.971,1.971,0,0,0-2.74-.488c-3.931,2.742-7.365,7.812-9.928,14.66C9.671,45.788,9.154,47.365,8.688,49a1.967,1.967,0,0,0,3.784,1.08c.437-1.534.918-3.011,1.434-4.386,2.283-6.1,5.22-10.53,8.5-12.813A1.968,1.968,0,0,0,22.889,30.141Z" fill="#3f4394"/>
        </g>
      </g>
      <g id="Group_27540" data-name="Group 27540">
        <g id="Group_27539" data-name="Group 27539">
          <path id="Path_15949" data-name="Path 15949" d="M50.373,49c-.452-1.6-.968-3.18-1.532-4.692-2.559-6.842-5.99-11.912-9.928-14.66a1.968,1.968,0,0,0-2.252,3.227c3.231,2.256,6.248,6.8,8.494,12.811.527,1.41,1.007,2.885,1.43,4.384a1.97,1.97,0,0,0,1.892,1.434,1.817,1.817,0,0,0,.537-.077A1.97,1.97,0,0,0,50.373,49Z" fill="#3f4394"/>
        </g>
      </g>
      <g id="Group_27542" data-name="Group 27542">
        <g id="Group_27541" data-name="Group 27541">
          <path id="Path_15950" data-name="Path 15950" d="M29.495,0A13.049,13.049,0,0,0,16.513,13.086v3.54a12.983,12.983,0,1,0,25.966,0v-3.54A13.051,13.051,0,0,0,29.495,0Zm9.051,16.626a9.05,9.05,0,1,1-18.1,0v-3.54a9.05,9.05,0,1,1,18.1,0Z" fill="#3f4394"/>
        </g>
      </g>
      <g id="Group_27544" data-name="Group 27544">
        <g id="Group_27543" data-name="Group 27543">
          <path id="Path_15951" data-name="Path 15951" d="M29.495,34.871a1.966,1.966,0,0,0-1.967,1.967v20.2a1.967,1.967,0,0,0,3.933,0v-20.2A1.966,1.966,0,0,0,29.495,34.871Z" fill="#3f4394"/>
        </g>
      </g>
      <g id="Group_27546" data-name="Group 27546">
        <g id="Group_27545" data-name="Group 27545">
          <path id="Path_15952" data-name="Path 15952" d="M42.347,44.051H35.006a1.967,1.967,0,0,0,0,3.933h7.342a1.967,1.967,0,0,0,0-3.933Z" fill="#3f4394"/>
        </g>
      </g>
      <g id="Group_27548" data-name="Group 27548">
        <g id="Group_27547" data-name="Group 27547">
          <path id="Path_15953" data-name="Path 15953" d="M38.675,40.382a1.965,1.965,0,0,0-1.967,1.967V49.69a1.967,1.967,0,0,0,3.933,0V42.348A1.965,1.965,0,0,0,38.675,40.382Z" fill="#3f4394"/>
        </g>
      </g>
    </g>
  </g>
</svg>
