<svg xmlns="http://www.w3.org/2000/svg" xmlns:xlink="http://www.w3.org/1999/xlink" width="56" height="56" viewBox="0 0 56 56">
  <defs>
    <clipPath id="clip-path">
      <rect id="Rectangle_8497" data-name="Rectangle 8497" width="32" height="32" transform="translate(1644.667 2872)" fill="#fff" stroke="#707070" stroke-width="1"/>
    </clipPath>
  </defs>
  <g id="Group_27779" data-name="Group 27779" transform="translate(-1635.667 -2865)">
    <rect id="Rectangle_8496" data-name="Rectangle 8496" width="56" height="56" rx="4" transform="translate(1635.667 2865)" fill="#3f4394"/>
    <g id="Mask_Group_1600" data-name="Mask Group 1600" transform="translate(3 5)" clip-path="url(#clip-path)">
      <path id="fi-rr-envelope" d="M25.333,1.333H6.667A6.675,6.675,0,0,0,0,8V24a6.675,6.675,0,0,0,6.667,6.667H25.333A6.675,6.675,0,0,0,32,24V8a6.675,6.675,0,0,0-6.667-6.667ZM6.667,4H25.333A4,4,0,0,1,29.04,6.516L18.829,16.728a4.009,4.009,0,0,1-5.659,0L2.96,6.516A4,4,0,0,1,6.667,4ZM25.333,28H6.667a4,4,0,0,1-4-4V10l8.619,8.613a6.676,6.676,0,0,0,9.429,0L29.333,10V24A4,4,0,0,1,25.333,28Z" transform="translate(1644.667 2872)" fill="#fff"/>
    </g>
  </g>
</svg>
