<svg xmlns="http://www.w3.org/2000/svg" xmlns:xlink="http://www.w3.org/1999/xlink" width="43.48" height="43.48" viewBox="0 0 43.48 43.48">
  <defs>
    <clipPath id="clip-path">
      <rect id="Rectangle_8203" data-name="Rectangle 8203" width="43.48" height="43.48" transform="translate(330.5 150)" fill="#4ab9b1" stroke="#707070" stroke-width="1"/>
    </clipPath>
  </defs>
  <g id="Mask_Group_1553" data-name="Mask Group 1553" transform="translate(-330.5 -150)" clip-path="url(#clip-path)">
    <g id="red-eyes" transform="translate(330.5 155.171)">
      <path id="Path_15443" data-name="Path 15443" d="M6.661,21.383c4.321,3.419,9.526,6.01,15.079,6.01S32.5,24.8,36.819,21.383a38.026,38.026,0,0,0,6.661-6.735,37.993,37.993,0,0,0-6.661-6.735C32.5,4.494,27.293,1.9,21.74,1.9S10.982,4.495,6.661,7.913A38.027,38.027,0,0,0,0,14.648a37.993,37.993,0,0,0,6.661,6.735Zm21.451-8.009A6.373,6.373,0,1,1,21.74,7,6.38,6.38,0,0,1,28.113,13.374ZM8.291,9.875c3.085-2.432,7.854-5.321,13.175-5.418a8.922,8.922,0,1,0,.549,0c5.321.1,10.09,2.986,13.175,5.418a37.718,37.718,0,0,1,2.925,2.568,9.844,9.844,0,0,0-1.7.629l-2.609-1.739-1.414,2.121L34.115,14.6q-.228.2-.446.419L32.394,16.3l1.8,1.8,1.275-1.275a7.372,7.372,0,0,1,4.719-2.155,38.264,38.264,0,0,1-5,4.753c-3.138,2.474-8.018,5.423-13.449,5.423S11.428,21.9,8.291,19.422a37.7,37.7,0,0,1-2.927-2.571,9.939,9.939,0,0,0,1.7-.629l2.612,1.742,1.414-2.121L9.365,14.694A10.052,10.052,0,0,0,11.1,12.7L8.967,11.3a7.422,7.422,0,0,1-5.678,3.332,38.266,38.266,0,0,1,5-4.754Z" transform="translate(0 -1.903)" fill="#4ab9b1"/>
      <path id="Path_15444" data-name="Path 15444" d="M10.417,12.364A3.824,3.824,0,1,0,6.593,8.541,3.828,3.828,0,0,0,10.417,12.364Zm0-5.1A1.275,1.275,0,1,1,9.142,8.541,1.276,1.276,0,0,1,10.417,7.266Z" transform="translate(11.323 2.93)" fill="#4ab9b1"/>
      <path id="Path_15445" data-name="Path 15445" d="M19.9,17.523a3.825,3.825,0,0,0-.511-1.91L16.076,9.876l-3.313,5.736a3.824,3.824,0,1,0,7.136,1.91Zm-5.1,0a1.254,1.254,0,0,1,.169-.635l1.105-1.914,1.105,1.914a1.256,1.256,0,0,1,.169.636,1.275,1.275,0,1,1-2.549,0Z" transform="translate(21.043 11.791)" fill="#4ab9b1"/>
    </g>
  </g>
</svg>
