<svg xmlns="http://www.w3.org/2000/svg" width="116" height="116" viewBox="0 0 116 116">
  <g id="Group_26675" data-name="Group 26675" transform="translate(-1431 -3221.999)">
    <circle id="Ellipse_104" data-name="Ellipse 104" cx="58" cy="58" r="58" transform="translate(1431 3221.999)" fill="#fff"/>
    <path id="Icon_awesome-hand-holding-heart" data-name="Icon awesome-hand-holding-heart" d="M29.765,27.084a1.883,1.883,0,0,0,2.757,0L44.3,14.737A8.962,8.962,0,0,0,43.69,1.893a8.218,8.218,0,0,0-11.341.832L31.138,3.99l-1.2-1.254A8.209,8.209,0,0,0,18.6,1.893a8.971,8.971,0,0,0-.605,12.844Zm31.354,8.39a3.579,3.579,0,0,0-4.606,0l-9.99,7.99A6.883,6.883,0,0,1,42.2,44.977H29.408a1.73,1.73,0,1,1,0-3.46h8.466a3.6,3.6,0,0,0,3.6-2.876A3.464,3.464,0,0,0,38.057,34.6h-17.3a12.725,12.725,0,0,0-8.011,2.843L7.72,41.518H1.73A1.735,1.735,0,0,0,0,43.247V53.627a1.735,1.735,0,0,0,1.73,1.73H40.306a6.928,6.928,0,0,0,4.325-1.514L60.978,40.761A3.458,3.458,0,0,0,61.118,35.474Z" transform="translate(1457.861 3252.322)" fill="none" stroke="#20cebd" stroke-width="3"/>
  </g>
</svg>
