<svg xmlns="http://www.w3.org/2000/svg" xmlns:xlink="http://www.w3.org/1999/xlink" width="24" height="24" viewBox="0 0 24 24">
  <defs>
    <clipPath id="clip-path">
      <rect id="Rectangle_8275" data-name="Rectangle 8275" width="24" height="24" transform="translate(1642 954)" fill="#b6b6ff" stroke="#707070" stroke-width="1"/>
    </clipPath>
  </defs>
  <g id="Mask_Group_1591" data-name="Mask Group 1591" transform="translate(-1642 -954)" clip-path="url(#clip-path)">
    <path id="fi-rr-ambulance" d="M23.052,11.654,21.233,7.563A6,6,0,0,0,15.75,4H14.4l-.66-2.642a1.794,1.794,0,0,0-3.48,0L9.6,4H5A5.006,5.006,0,0,0,0,9v8a2.994,2.994,0,0,0,2.071,2.838A3.4,3.4,0,0,0,2,20.5a3.5,3.5,0,0,0,7,0,3.465,3.465,0,0,0-.041-.5h6.082A3.5,3.5,0,1,0,22,20.5a3.4,3.4,0,0,0-.071-.662A2.994,2.994,0,0,0,24,17v-.878A10.93,10.93,0,0,0,23.052,11.654ZM19.406,8.376,20.573,11H17a1,1,0,0,1-1-1V6.018a4,4,0,0,1,3.406,2.358ZM7,20.5a1.5,1.5,0,0,1-3,0,1.418,1.418,0,0,1,.093-.5H6.907A1.418,1.418,0,0,1,7,20.5ZM18.5,22A1.5,1.5,0,0,1,17,20.5a1.418,1.418,0,0,1,.093-.5h2.814a1.418,1.418,0,0,1,.093.5A1.5,1.5,0,0,1,18.5,22ZM22,17a1,1,0,0,1-1,1H3a1,1,0,0,1-1-1V9A3,3,0,0,1,5,6h9v4a3,3,0,0,0,3,3h4.429A8.916,8.916,0,0,1,22,16.122ZM11,12a1,1,0,0,1-1,1H9v1a1,1,0,0,1-2,0V13H6a1,1,0,0,1,0-2H7V10a1,1,0,0,1,2,0v1h1A1,1,0,0,1,11,12Z" transform="translate(1642 954)" fill="#b6b6ff"/>
  </g>
</svg>
