<svg xmlns="http://www.w3.org/2000/svg" xmlns:xlink="http://www.w3.org/1999/xlink" width="43.48" height="43.48" viewBox="0 0 43.48 43.48">
  <defs>
    <clipPath id="clip-path">
      <rect id="Rectangle_8207" data-name="Rectangle 8207" width="43.48" height="43.48" fill="#4ab9b1" stroke="#707070" stroke-width="1"/>
    </clipPath>
  </defs>
  <g id="Mask_Group_1557" data-name="Mask Group 1557" clip-path="url(#clip-path)">
    <g id="hiv" transform="translate(0.004)">
      <path id="Path_15452" data-name="Path 15452" d="M33.943,7.728H30.293L28.813,9.243,27.023,7.452l-1.8,1.8,3.6,3.6-1.8,1.8-.9-.9a3.819,3.819,0,0,0-5.4,0L5.406,29.069l-1.8-1.8-1.8,1.8,3.6,3.6-1.8,1.8-1.8-1.8L0,34.473,9.009,43.48l1.8-1.8-1.8-1.8,1.8-1.8,3.6,3.6,1.8-1.8-1.8-1.8L29.725,22.764a3.819,3.819,0,0,0,0-5.4l-.9-.9,1.8-1.8,3.6,3.6,1.8-1.8-1.795-1.795,1.51-1.487V9.53L43.473,1.8,41.672,0ZM7.207,38.076l-1.8-1.8,1.8-1.8,1.8,1.8Zm5.4-1.8-5.4-5.4,1.8-1.8,3.6,3.6,1.8-1.8-3.6-3.6,1.8-1.8,3.6,3.6,1.8-1.8-3.6-3.6,1.8-1.8,3.6,3.6,1.8-1.8-3.6-3.6,1.8-1.8,5.4,5.4ZM27.923,20.962l-.9.9-5.4-5.4.9-.9a1.273,1.273,0,0,1,1.8,0l3.6,3.6A1.273,1.273,0,0,1,27.923,20.962ZM33.2,12.111l-.764.752-1.819-1.819.751-.768H33.2Z" transform="translate(-0.002 0)" fill="#4ab9b1"/>
    </g>
  </g>
</svg>
