<svg xmlns="http://www.w3.org/2000/svg" xmlns:xlink="http://www.w3.org/1999/xlink" width="59" height="59" viewBox="0 0 59 59">
  <defs>
    <clipPath id="clip-path">
      <rect id="Rectangle_8649" data-name="Rectangle 8649" width="59" height="59" transform="translate(989 471)" fill="#3f4394" stroke="#707070" stroke-width="1"/>
    </clipPath>
  </defs>
  <g id="Mask_Group_1763" data-name="Mask Group 1763" transform="translate(-989 -471)" clip-path="url(#clip-path)">
    <g id="nurse" transform="translate(989 471)">
      <path id="Path_15954" data-name="Path 15954" d="M44.607,16.891a.962.962,0,0,0,.072-.2l2.547-15.2A1.283,1.283,0,0,0,46.945.453,1.269,1.269,0,0,0,45.975,0H13.024a1.274,1.274,0,0,0-1.255,1.487l2.547,15.2a1.132,1.132,0,0,0,.078.2,23.769,23.769,0,1,0,30.213,0Zm5.407,12.987a21.091,21.091,0,0,1-11.55,3.447h-.01A21.121,21.121,0,0,1,17.93,17.462,21.166,21.166,0,0,1,50.014,29.878ZM14.532,2.546H44.47L42.341,15.255a23.6,23.6,0,0,0-25.68.005ZM15.747,19.1a23.647,23.647,0,0,0,6.53,10.455A21.051,21.051,0,0,1,8.287,35.409c0-.06-.008-.119-.008-.179A21.155,21.155,0,0,1,15.747,19.1ZM29.5,56.454A21.243,21.243,0,0,1,8.472,37.946a23.506,23.506,0,0,0,15.783-6.765,23.712,23.712,0,0,0,14.194,4.691h.015a23.572,23.572,0,0,0,12.062-3.363A21.088,21.088,0,0,1,29.5,56.454Zm0-45.271a1.273,1.273,0,0,1-1.273-1.273V8.5H26.812a1.273,1.273,0,0,1,0-2.546h1.414V4.537a1.273,1.273,0,0,1,2.546,0V5.949h1.416a1.273,1.273,0,1,1,0,2.546H30.772V9.909A1.272,1.272,0,0,1,29.5,11.182Z" fill="#3f4394"/>
    </g>
  </g>
</svg>
