<svg xmlns="http://www.w3.org/2000/svg" xmlns:xlink="http://www.w3.org/1999/xlink" width="59" height="59" viewBox="0 0 59 59">
  <defs>
    <clipPath id="clip-path">
      <rect id="Rectangle_8647" data-name="Rectangle 8647" width="59" height="59" transform="translate(787 471)" fill="#3f4394" stroke="#707070" stroke-width="1"/>
    </clipPath>
  </defs>
  <g id="Mask_Group_1764" data-name="Mask Group 1764" transform="translate(-787 -471)" clip-path="url(#clip-path)">
    <g id="hat" transform="translate(787 471)">
      <path id="Path_15955" data-name="Path 15955" d="M57.045,24.949a38.614,38.614,0,0,0-4.03-2.809V13.247a7.5,7.5,0,0,0-7.49-7.49H13.475a7.5,7.5,0,0,0-7.49,7.49V22.14a38.768,38.768,0,0,0-4.03,2.809A5.219,5.219,0,0,0,.183,30.391L5.353,49.417a5.2,5.2,0,0,0,5,3.826H48.643a5.2,5.2,0,0,0,5-3.826l5.169-19.026a5.219,5.219,0,0,0-1.772-5.441Zm-47.6-11.7a4.038,4.038,0,0,1,4.033-4.033H45.525a4.038,4.038,0,0,1,4.033,4.033v6.975a44.9,44.9,0,0,0-40.116,0ZM55.481,29.484,50.312,48.51a1.732,1.732,0,0,1-1.669,1.276H10.357A1.732,1.732,0,0,1,8.689,48.51L3.519,29.484a1.76,1.76,0,0,1,.6-1.837c14.516-11.653,36.563-11.4,50.763,0A1.759,1.759,0,0,1,55.481,29.484Z" fill="#3f4394"/>
      <path id="Path_15956" data-name="Path 15956" d="M36.161,32.647H31.229V27.738a1.729,1.729,0,1,0-3.457,0v4.909H22.839a1.729,1.729,0,0,0,0,3.457h4.933v4.908a1.729,1.729,0,0,0,3.457,0V36.1h4.933a1.729,1.729,0,0,0,0-3.457Z" fill="#3f4394"/>
    </g>
  </g>
</svg>
