<svg xmlns="http://www.w3.org/2000/svg" width="35.429" height="31" viewBox="0 0 35.429 31">
  <path id="Icon_awesome-quote-right" data-name="Icon awesome-quote-right" d="M32.107,2.25H23.25a3.322,3.322,0,0,0-3.321,3.321v8.857A3.322,3.322,0,0,0,23.25,17.75h5.536v4.429a4.433,4.433,0,0,1-4.429,4.429H23.8a1.657,1.657,0,0,0-1.661,1.661v3.321A1.657,1.657,0,0,0,23.8,33.25h.554A11.068,11.068,0,0,0,35.429,22.179V5.571A3.322,3.322,0,0,0,32.107,2.25Zm-19.929,0H3.321A3.322,3.322,0,0,0,0,5.571v8.857A3.322,3.322,0,0,0,3.321,17.75H8.857v4.429a4.433,4.433,0,0,1-4.429,4.429H3.875a1.657,1.657,0,0,0-1.661,1.661v3.321A1.657,1.657,0,0,0,3.875,33.25h.554A11.068,11.068,0,0,0,15.5,22.179V5.571A3.322,3.322,0,0,0,12.179,2.25Z" transform="translate(0 -2.25)" fill="#3f3fa0"/>
</svg>
