<svg xmlns="http://www.w3.org/2000/svg" xmlns:xlink="http://www.w3.org/1999/xlink" width="43.482" height="43.482" viewBox="0 0 43.482 43.482">
  <defs>
    <clipPath id="clip-path">
      <rect id="Rectangle_8079" data-name="Rectangle 8079" width="43.482" height="43.482" transform="translate(0 0)" fill="#4ab9b1" stroke="#707070" stroke-width="1"/>
    </clipPath>
  </defs>
  <g id="Mask_Group_1474" data-name="Mask Group 1474" clip-path="url(#clip-path)">
    <g id="stethoscope-line_2_" data-name="stethoscope-line (2)" transform="translate(0 0)">
      <path id="Path_15238" data-name="Path 15238" d="M0,0H43.482V43.482H0Z" fill="none"/>
      <path id="Path_15239" data-name="Path 15239" d="M12.58,4V7.623H8.957V14.87a7.247,7.247,0,1,0,14.494,0V7.623H19.827V4h5.435a1.812,1.812,0,0,1,1.812,1.812V14.87a10.874,10.874,0,0,1-9.059,10.72v2.868A6.342,6.342,0,0,0,30.29,30.7,5.431,5.431,0,1,1,34,30.968a9.966,9.966,0,0,1-19.61-2.509V25.591A10.873,10.873,0,0,1,5.333,14.87V5.812A1.812,1.812,0,0,1,7.145,4ZM32.51,23.929a1.812,1.812,0,1,0,1.812,1.812A1.812,1.812,0,0,0,32.51,23.929Z" transform="translate(1.914 1.435)" fill="#4ab9b1"/>
    </g>
  </g>
</svg>
