<svg xmlns="http://www.w3.org/2000/svg" xmlns:xlink="http://www.w3.org/1999/xlink" width="296.127" height="240.748" viewBox="0 0 296.127 240.748">
  <defs>
    <clipPath id="clip-path">
      <rect id="Rectangle_8689" data-name="Rectangle 8689" width="240" height="182" transform="translate(804.307 292)" fill="#fff" stroke="#707070" stroke-width="1"/>
    </clipPath>
    <linearGradient id="linear-gradient" x1="-319.357" y1="0.5" x2="-318.356" y2="0.5" gradientUnits="objectBoundingBox">
      <stop offset="0" stop-color="#fc9512"/>
      <stop offset="0.007" stop-color="#fc9512"/>
      <stop offset="0.68" stop-color="#fed319"/>
      <stop offset="1" stop-color="#ffeb1c"/>
    </linearGradient>
    <linearGradient id="linear-gradient-2" x1="-456.003" y1="0.189" x2="-452.576" y2="1.463" xlink:href="#linear-gradient"/>
    <linearGradient id="linear-gradient-3" x1="-595.888" y1="0.288" x2="-592.699" y2="1.352" xlink:href="#linear-gradient"/>
    <linearGradient id="linear-gradient-4" x1="-897.331" y1="0.319" x2="-892.443" y2="0.648" xlink:href="#linear-gradient"/>
    <linearGradient id="linear-gradient-5" x1="-1631.988" y1="0.303" x2="-1626.188" y2="0.633" xlink:href="#linear-gradient"/>
    <linearGradient id="linear-gradient-6" x1="-994.276" y1="0.194" x2="-986.509" y2="0.78" xlink:href="#linear-gradient"/>
    <linearGradient id="linear-gradient-7" x1="-335.904" y1="0.5" x2="-334.904" y2="0.5" xlink:href="#linear-gradient"/>
    <linearGradient id="linear-gradient-8" x1="-324.8" y1="0.5" x2="-323.8" y2="0.5" xlink:href="#linear-gradient"/>
    <linearGradient id="linear-gradient-9" y1="0.5" x2="1" y2="0.5" gradientUnits="objectBoundingBox">
      <stop offset="0" stop-color="#4d8eff"/>
      <stop offset="0.428" stop-color="#3e76ff"/>
      <stop offset="1" stop-color="#2850ff"/>
    </linearGradient>
    <linearGradient id="linear-gradient-10" x1="-0.803" y1="0.632" x2="2.531" y2="0.291" xlink:href="#linear-gradient-9"/>
    <linearGradient id="linear-gradient-11" x1="-1.13" y1="0.822" x2="2.711" y2="0.077" xlink:href="#linear-gradient-9"/>
    <linearGradient id="linear-gradient-12" x1="0" y1="0.5" x2="1" y2="0.5" xlink:href="#linear-gradient-9"/>
    <linearGradient id="linear-gradient-13" x1="-0.144" y1="0.464" x2="1.48" y2="0.554" xlink:href="#linear-gradient-9"/>
    <linearGradient id="linear-gradient-14" y1="0.5" x2="1" y2="0.5" gradientUnits="objectBoundingBox">
      <stop offset="0" stop-color="#00ee98"/>
      <stop offset="0.28" stop-color="#00d685"/>
      <stop offset="0.868" stop-color="#009854"/>
      <stop offset="1" stop-color="#008a49"/>
    </linearGradient>
    <linearGradient id="linear-gradient-15" x1="-4.334" y1="0.196" x2="11.332" y2="1.164" xlink:href="#linear-gradient-14"/>
    <linearGradient id="linear-gradient-16" x1="-1.172" y1="0.486" x2="1.832" y2="0.512" xlink:href="#linear-gradient-14"/>
    <linearGradient id="linear-gradient-17" x1="-0.844" y1="0.233" x2="2.05" y2="0.808" xlink:href="#linear-gradient-14"/>
    <linearGradient id="linear-gradient-18" x1="0" y1="0.5" x2="1" y2="0.5" xlink:href="#linear-gradient-14"/>
    <linearGradient id="linear-gradient-20" x1="-0.592" y1="0.286" x2="1.746" y2="0.742" xlink:href="#linear-gradient-14"/>
    <linearGradient id="linear-gradient-21" x1="-278.909" y1="-335.804" x2="-277.909" y2="-335.804" gradientUnits="objectBoundingBox">
      <stop offset="0" stop-color="#ebebeb"/>
      <stop offset="0" stop-color="#ff3eb9"/>
      <stop offset="0.043" stop-color="#ff43bb"/>
      <stop offset="0.701" stop-color="#ff97e2"/>
      <stop offset="1" stop-color="#ffb9f2"/>
    </linearGradient>
    <linearGradient id="linear-gradient-22" x1="-629.74" y1="-590.781" x2="-627.265" y2="-590.352" xlink:href="#linear-gradient-21"/>
    <linearGradient id="linear-gradient-23" x1="-259.038" y1="-372.853" x2="-257.423" y2="-372.295" xlink:href="#linear-gradient-21"/>
    <linearGradient id="linear-gradient-24" x1="-397.305" y1="-480.912" x2="-394.826" y2="-480.088" xlink:href="#linear-gradient-21"/>
    <linearGradient id="linear-gradient-25" x1="-420.418" y1="-319.567" x2="-419.418" y2="-319.567" xlink:href="#linear-gradient-21"/>
    <linearGradient id="linear-gradient-26" x1="-394.864" y1="-380.976" x2="-393.864" y2="-380.976" xlink:href="#linear-gradient-21"/>
    <linearGradient id="linear-gradient-27" x1="-30.207" y1="-144.138" x2="-30.246" y2="-145.046" xlink:href="#linear-gradient-9"/>
    <linearGradient id="linear-gradient-28" x1="-639.56" y1="-83.251" x2="-639.253" y2="-82.89" xlink:href="#linear-gradient-9"/>
    <linearGradient id="linear-gradient-31" x1="-623.726" y1="-242.672" x2="-623.651" y2="-242.253" xlink:href="#linear-gradient"/>
    <linearGradient id="linear-gradient-33" x1="-1762.217" y1="-119.342" x2="-1762.229" y2="-118.068" xlink:href="#linear-gradient-21"/>
    <linearGradient id="linear-gradient-35" x1="-551.95" y1="-66.487" x2="-551.177" y2="-66.373" xlink:href="#linear-gradient-14"/>
    <linearGradient id="linear-gradient-36" x1="-563.856" y1="-354.613" x2="-563.774" y2="-354.026" xlink:href="#linear-gradient-14"/>
  </defs>
  <g id="Group_27778" data-name="Group 27778" transform="translate(-799.815 -198.151)">
    <g id="Mask_Group_1794" data-name="Mask Group 1794" transform="translate(35.693 -44)" clip-path="url(#clip-path)">
      <g id="tick" transform="translate(832.275 292)">
        <circle id="Ellipse_164" data-name="Ellipse 164" cx="90.979" cy="90.979" r="90.979" transform="translate(0 0)" fill="#3db39e"/>
        <path id="Path_16034" data-name="Path 16034" d="M203.848,76.285a90.665,90.665,0,0,0-10.723-22.163l-79.638,82.947.16,9.231,3.759-.024,86.441-69.992Z" transform="translate(-26.357 -13.469)" fill="#37a18e"/>
        <path id="Path_16035" data-name="Path 16035" d="M192.542,42.473,176.319,26.444a5.719,5.719,0,0,0-8.021,0L98.949,97.877,69.042,68.327a5.722,5.722,0,0,0-8.022,0L46.64,82.536a5.554,5.554,0,0,0,0,7.922l48,47.42a5.672,5.672,0,0,0,4.68,1.578,5.678,5.678,0,0,0,4.68-1.578L192.543,50.4a5.557,5.557,0,0,0,0-7.924Z" transform="translate(-10.446 -6.66)" fill="#f8f8f8"/>
        <path id="Path_16036" data-name="Path 16036" d="M104,142.433l88.544-87.482a5.557,5.557,0,0,0,0-7.924L189.9,44.41,98.813,134,48.651,85.1l-2.009,1.987a5.554,5.554,0,0,0,0,7.922l48,47.422a5.672,5.672,0,0,0,4.68,1.578,5.666,5.666,0,0,0,4.68-1.578Z" transform="translate(-10.447 -11.213)" fill="#ebebeb"/>
      </g>
    </g>
    <g id="Group_7" data-name="Group 7" transform="translate(734.716 245.79)">
      <path id="Path_177" data-name="Path 177" d="M105.481,141.73c.369,5.087,8.665,8.241,10.075,13.48v-3c-1.3-4.84-8.478-7.9-9.858-12.347a5.121,5.121,0,0,1-.2-.975l-.01,2.084Z" fill="url(#linear-gradient)"/>
      <path id="Path_178" data-name="Path 178" d="M108.707,132.326a8.122,8.122,0,0,0,5.611,1.275c.979-.15,1.417-.482,1.456-.857C115.9,131.537,111.945,129.876,108.707,132.326Z" fill="url(#linear-gradient-2)"/>
      <path id="Path_179" data-name="Path 179" d="M109.453,122.64a7.092,7.092,0,0,0,4.477.784c.652-.133.93-.339.93-.552v0C114.856,122.195,112.05,121.441,109.453,122.64Z" fill="url(#linear-gradient-3)"/>
      <path id="Path_180" data-name="Path 180" d="M105.866,127.621v.165a4.38,4.38,0,0,0,.074.707,4.432,4.432,0,0,0,.184.7,5.4,5.4,0,0,1,.636-1.246,6.533,6.533,0,0,1,2.693-2.3,9.488,9.488,0,0,1-2.108-1.445,6.9,6.9,0,0,0-.585.747,5.2,5.2,0,0,0-.775,1.716v0A4.416,4.416,0,0,0,105.866,127.621Z" fill="url(#linear-gradient-4)"/>
      <path id="Path_181" data-name="Path 181" d="M105.284,117.264v.014a4.044,4.044,0,0,0,.325,1.548,4.812,4.812,0,0,1,1.645-1.851v-3A4.037,4.037,0,0,0,105.284,117.264Z" fill="url(#linear-gradient-5)"/>
      <path id="Path_182" data-name="Path 182" d="M105.494,138.889a5.121,5.121,0,0,0,.2.975c.04-.137.087-.273.139-.412a8.97,8.97,0,0,1,2.87-4.125,7.27,7.27,0,0,1-1.56-1.377,10.764,10.764,0,0,0-1.31,2.5,5.66,5.66,0,0,0-.337,1.364v0A4.809,4.809,0,0,0,105.494,138.889Z" fill="url(#linear-gradient-6)"/>
      <path id="Path_183" data-name="Path 183" d="M105.284,117.278v3a5.573,5.573,0,0,0,2.061,3.916,9.488,9.488,0,0,0,2.108,1.445,7.1,7.1,0,0,0,4.477.784c.655-.135.933-.341.93-.556v-3c0,.213-.278.419-.93.552a7.092,7.092,0,0,1-4.477-.784,8.06,8.06,0,0,1-3.844-3.814A4.044,4.044,0,0,1,105.284,117.278Z" fill="url(#linear-gradient-7)"/>
      <path id="Path_184" data-name="Path 184" d="M105.866,127.786v3.041a5.126,5.126,0,0,0,1.281,3.123,7.27,7.27,0,0,0,1.56,1.377,8.127,8.127,0,0,0,5.611,1.274c.979-.15,1.417-.481,1.456-.857v-3c-.039.375-.477.707-1.456.857a8.122,8.122,0,0,1-5.611-1.275,6.408,6.408,0,0,1-2.583-3.137,4.432,4.432,0,0,1-.184-.7A4.38,4.38,0,0,1,105.866,127.786Z" fill="url(#linear-gradient-8)"/>
    </g>
    <g id="Group_10" data-name="Group 10" transform="translate(951 214)">
      <path id="Path_190" data-name="Path 190" d="M143.736,28.473v4.593a6.842,6.842,0,0,0-.323-1.61c-1.344-4.1-6.421-6.576-11.956-8.363v-4.6C137.684,20.5,143.333,23.387,143.736,28.473Z" fill="url(#linear-gradient-9)"/>
      <path id="Path_191" data-name="Path 191" d="M136.447,66.866a3.687,3.687,0,0,1-.5-1.526v0a7.311,7.311,0,0,1,.386-2.752c1.007-3.152,3.911-5.284,5.248-7.606a4.647,4.647,0,0,1,.68,2.032C142.51,60.444,137.939,62.807,136.447,66.866Z" fill="url(#linear-gradient-10)"/>
      <path id="Path_192" data-name="Path 192" d="M142.286,38.819c-1.292,2.543-3.691,4.8-4.991,7.252a2.562,2.562,0,0,1-.784-1.67v0a3.179,3.179,0,0,1,.009-.522v0a6.239,6.239,0,0,1,.334-1.448c.976-2.877,3.975-5.334,5.432-8.205a13.734,13.734,0,0,0,1.127-2.762,6.842,6.842,0,0,1,.323,1.61A10.537,10.537,0,0,1,142.286,38.819Z" fill="url(#linear-gradient-11)"/>
      <path id="Path_193" data-name="Path 193" d="M142.265,52.419v4.593a4.647,4.647,0,0,0-.68-2.032,9.556,9.556,0,0,0-1.334-1.724c-1.9-1.938-3.715-2.468-3.813-4.24l.007-.393v-.005l.066-4.217a2.562,2.562,0,0,0,.784,1.67c.7.74,1.794,1.4,2.956,2.584A6.25,6.25,0,0,1,142.265,52.419Z" fill="url(#linear-gradient-12)"/>
      <path id="Path_194" data-name="Path 194" d="M144.942,76.1v4.6c-1.652-4.634-3.357-4.288-6.367-6.871-1.98-1.779-2.822-2.9-2.614-4.884l-.01-3.607a3.687,3.687,0,0,0,.5,1.526,10.434,10.434,0,0,0,2.128,2.365C141.585,71.814,143.29,71.468,144.942,76.1Z" fill="url(#linear-gradient-13)"/>
    </g>
    <g id="Group_15" data-name="Group 15" transform="translate(763 203.278)">
      <path id="Path_219" data-name="Path 219" d="M48.677,37.782l-.061,2.713a3.3,3.3,0,0,1-.544,1.616c-1.217,2.055-6.943,2.144-9.813,3.832a4.128,4.128,0,0,0-.85.642,1.823,1.823,0,0,0-.594,1.261l.061-2.721c.018-.669.449-1.309,1.444-1.9,2.87-1.689,8.6-1.777,9.813-3.832.054-.088.1-.175.149-.26A3.1,3.1,0,0,0,48.677,37.782Z" fill="url(#linear-gradient-14)"/>
      <path id="Path_220" data-name="Path 220" d="M45.046,91.466l-.06,2.713a3.317,3.317,0,0,1-1.132-2.6v-.025a4.908,4.908,0,0,1,.275-1.412A3.619,3.619,0,0,0,45.046,91.466Z" fill="url(#linear-gradient-15)"/>
      <path id="Path_221" data-name="Path 221" d="M48.679,37.707l0,.075a3.1,3.1,0,0,1-.395,1.356c-1.267-2.376-5.76-4.094-7.262-7.21l.061-2.713C42.839,32.863,48.695,34.594,48.679,37.707Z" fill="url(#linear-gradient-16)"/>
      <path id="Path_222" data-name="Path 222" d="M48.912,78.658v0a5.458,5.458,0,0,1-.252,1.12c-.924-2.336-4.623-3.069-6.942-5.264a5.334,5.334,0,0,1-1.856-3.691c0-.088,0-.176.006-.262a3.909,3.909,0,0,1,.27-1.213A6.4,6.4,0,0,0,41.779,71.8C44.556,74.431,49.31,74.964,48.912,78.658Z" fill="url(#linear-gradient-17)"/>
      <path id="Path_223" data-name="Path 223" d="M48.875,80.927v.016a5.068,5.068,0,0,1-.311,1.655c-.681,2.024-3.531,4.864-4.435,7.548a4.908,4.908,0,0,0-.275,1.412l.061-2.719c.1-3.059,3.909-6.572,4.71-8.954l.035-.105a5.458,5.458,0,0,0,.252-1.12Z" fill="url(#linear-gradient-18)"/>
      <path id="Path_224" data-name="Path 224" d="M51.677,58.3l-.061,2.548v0l-.007.293v.007a2.261,2.261,0,0,1-.032.242c-.441,2.255-3.769,2.67-5.739,3.479-2.64.89-4.93,2.5-5.7,4.476a3.909,3.909,0,0,0-.27,1.213l.061-2.714c.146-2.52,2.807-4.622,5.97-5.688,1.678-.688,4.341-1.092,5.366-2.589a2.363,2.363,0,0,0,.373-.889A2.486,2.486,0,0,0,51.677,58.3Z" fill="url(#linear-gradient-14)"/>
      <path id="Path_225" data-name="Path 225" d="M51.679,58.251l0,.052a2.486,2.486,0,0,1-.039.38,2.363,2.363,0,0,1-.373.889c-.844-1.672-3.01-3.1-4.439-3.92-3.4-1.929-10.071-5.1-10.011-7.806a1.823,1.823,0,0,1,.594-1.261c1.639,2.323,6.674,4.762,9.478,6.355C48.7,53.985,51.7,55.994,51.679,58.251Z" fill="url(#linear-gradient-20)"/>
    </g>
    <g id="Group_12" data-name="Group 12" transform="translate(712 250.348)">
      <path id="Path_201" data-name="Path 201" d="M350.438,188.551V186.2c2.951-.875,10.377-3.922,11.849-7.431a3.081,3.081,0,0,0,.256-1.2v2.352C362.543,183.915,353.722,187.577,350.438,188.551Z" fill="url(#linear-gradient-21)"/>
      <path id="Path_202" data-name="Path 202" d="M352.222,140.767v-2.351c3.88,1.2,5.43,3.033,5.356,5.032v.006a4.229,4.229,0,0,1-.19,1.069C356.868,143.033,355.258,141.706,352.222,140.767Z" fill="url(#linear-gradient-22)"/>
      <path id="Path_203" data-name="Path 203" d="M349.515,170.04V170a1.883,1.883,0,0,1,.385-1.083c2.275,4.244,10.912,3.974,12.433,7.6a2.756,2.756,0,0,1,.21,1.048,3.081,3.081,0,0,1-.256,1.2c-1.714-3.667-10.874-3.267-12.641-8.061A1.9,1.9,0,0,1,349.515,170.04Z" fill="url(#linear-gradient-23)"/>
      <path id="Path_204" data-name="Path 204" d="M349.583,154.781a1.781,1.781,0,0,1,.47-.874c.057.077.119.155.187.235,1.586,1.814,5.353,2.571,6.939,4.385a2.866,2.866,0,0,1,.871,1.75v.139a1.908,1.908,0,0,1-.408,1.061,4.762,4.762,0,0,0-.463-.6c-1.586-1.814-5.353-2.57-6.939-4.385a2.655,2.655,0,0,1-.657-1.232A1.357,1.357,0,0,1,349.583,154.781Z" fill="url(#linear-gradient-24)"/>
      <path id="Path_205" data-name="Path 205" d="M354.007,148.849a9.616,9.616,0,0,0,3.381-4.326,4.229,4.229,0,0,0,.19-1.069l-.014,1.871v0l-.005.727c-.179,1.707-1.506,3.518-3.552,5.147-1.362,1.038-3.114,1.779-3.954,2.706a1.781,1.781,0,0,0-.47.874v-1.865C349.289,151.22,352.05,150.341,354.007,148.849Z" fill="url(#linear-gradient-25)"/>
      <path id="Path_206" data-name="Path 206" d="M349.515,170l.006-2.2h0v-.257h0c.207-2.6,6.447-3.814,8.121-6.065a1.908,1.908,0,0,0,.408-1.061v2.207c.119,2.743-6.473,3.952-8.15,6.3A1.883,1.883,0,0,0,349.515,170Z" fill="url(#linear-gradient-26)"/>
    </g>
    <path id="Path_49" data-name="Path 49" d="M281.091,78.988a3.345,3.345,0,0,0-.775,2.9,11.879,11.879,0,0,1,5.265,1.318,4.467,4.467,0,0,1,1.173-2.881A14.217,14.217,0,0,0,281.091,78.988Z" transform="translate(694.154 164)" fill="url(#linear-gradient-27)"/>
    <path id="Path_58" data-name="Path 58" d="M351.791,73.334a8.474,8.474,0,0,0,2.284-4.834,12.58,12.58,0,0,1-1.923-3.349c-.552,1.145-1.36,1.487-3.161,1.662A21.915,21.915,0,0,1,351.791,73.334Z" transform="translate(694.154 133)" fill="url(#linear-gradient-28)"/>
    <path id="Path_16045" data-name="Path 16045" d="M351.791,73.334a8.474,8.474,0,0,0,2.284-4.834,12.58,12.58,0,0,1-1.923-3.349c-.552,1.145-1.36,1.487-3.161,1.662A21.915,21.915,0,0,1,351.791,73.334Z" transform="translate(491.172 247)" fill="url(#linear-gradient-28)"/>
    <path id="Path_16043" data-name="Path 16043" d="M351.791,73.334a8.474,8.474,0,0,0,2.284-4.834,12.58,12.58,0,0,1-1.923-3.349c-.552,1.145-1.36,1.487-3.161,1.662A21.915,21.915,0,0,1,351.791,73.334Z" transform="translate(526.154 154)" fill="url(#linear-gradient-28)"/>
    <path id="Path_98" data-name="Path 98" d="M343.126,121.464a2.566,2.566,0,0,1,1.71-1.283,20.6,20.6,0,0,0-3.816-4.569,4.894,4.894,0,0,0-2.13,1.544A11.767,11.767,0,0,1,343.126,121.464Z" transform="translate(694.154 133)" fill="url(#linear-gradient-31)"/>
    <path id="Path_16044" data-name="Path 16044" d="M343.126,121.464a2.566,2.566,0,0,1,1.71-1.283,20.6,20.6,0,0,0-3.816-4.569,4.894,4.894,0,0,0-2.13,1.544A11.767,11.767,0,0,1,343.126,121.464Z" transform="translate(580.154 100.613)" fill="url(#linear-gradient-31)"/>
    <path id="Path_112" data-name="Path 112" d="M309.726,54.493a1.846,1.846,0,0,0,1.76-.56,2.79,2.79,0,0,0-.553-1.741,4.2,4.2,0,0,1-2.289-.417A7.294,7.294,0,0,1,309.726,54.493Z" transform="translate(691.154 165.998)" fill="url(#linear-gradient-33)"/>
    <path id="Path_16046" data-name="Path 16046" d="M309.726,54.493a1.846,1.846,0,0,0,1.76-.56,2.79,2.79,0,0,0-.553-1.741,4.2,4.2,0,0,1-2.289-.417A7.294,7.294,0,0,1,309.726,54.493Z" transform="translate(563.659 210.444)" fill="url(#linear-gradient-33)"/>
    <path id="Path_161" data-name="Path 161" d="M361.662,77.639c1.234-.348,2.613-.188,5.364,1.276a6.56,6.56,0,0,0,.007-4.129,11.684,11.684,0,0,0-5.833-.9A5.993,5.993,0,0,1,361.662,77.639Z" transform="translate(707.182 239.874)" fill="url(#linear-gradient-35)"/>
    <path id="Path_164" data-name="Path 164" d="M297.364,19.554a6.293,6.293,0,0,0,2.026-3.5,6.761,6.761,0,0,1-3.871-1.748,9.592,9.592,0,0,0-2.467,3.012A12.667,12.667,0,0,1,297.364,19.554Z" transform="translate(671.154 186.78)" fill="url(#linear-gradient-36)"/>
  </g>
</svg>
