<svg xmlns="http://www.w3.org/2000/svg" xmlns:xlink="http://www.w3.org/1999/xlink" width="43.48" height="43.48" viewBox="0 0 43.48 43.48">
  <defs>
    <clipPath id="clip-path">
      <rect id="Rectangle_8197" data-name="Rectangle 8197" width="43.48" height="43.48" transform="translate(335.5 182)" fill="#4ab9b1" stroke="#707070" stroke-width="1"/>
    </clipPath>
  </defs>
  <g id="Mask_Group_1547" data-name="Mask Group 1547" transform="translate(-335.5 -182)" clip-path="url(#clip-path)">
    <g id="tooth" transform="translate(338.137 182)">
      <path id="Path_15429" data-name="Path 15429" d="M13.228,14.237V11.689A1.274,1.274,0,1,1,14.5,10.415h2.548a3.821,3.821,0,1,0-3.821,3.821Z" transform="translate(13.518 11.326)" fill="#4ab9b1"/>
      <path id="Path_15430" data-name="Path 15430" d="M7.6,12.362a3.821,3.821,0,1,0,0-7.643V7.267A1.274,1.274,0,1,1,6.329,8.541H3.781A3.826,3.826,0,0,0,7.6,12.362Z" transform="translate(3.858 8.105)" fill="#4ab9b1"/>
      <path id="Path_15431" data-name="Path 15431" d="M8.205,37.816l.179,1.968a4.063,4.063,0,0,0,8.093,0l.823-9.142a2.784,2.784,0,0,1,5.545,0l.823,9.144a4.063,4.063,0,0,0,8.093,0l.179-1.968c.67-7.372,2.506-13.608,5.457-18.537A12.742,12.742,0,0,0,20.073,1.711,12.758,12.758,0,0,0,2.748,19.28C5.7,24.208,7.535,30.445,8.205,37.816ZM3.828,10.261a10.111,10.111,0,0,1,7.1-7.344A10.237,10.237,0,0,1,22.179,7.079L24.3,5.662A12.745,12.745,0,0,0,22.367,3.4a10.343,10.343,0,0,1,6.855-.483,10.111,10.111,0,0,1,7.1,7.344c.046.191.087.382.123.573a38.653,38.653,0,0,1-12.895-.665,41.4,41.4,0,0,0-19.8.458c.025-.122.052-.244.082-.366Zm19.166,2.394a41.16,41.16,0,0,0,13.617.723,9.981,9.981,0,0,1-1.4,4.592C32.064,23.23,30.11,29.83,29.4,37.585l-.179,1.968a1.516,1.516,0,0,1-3.019,0l-.823-9.144a5.332,5.332,0,0,0-10.619,0l-.823,9.142a1.516,1.516,0,0,1-3.019,0l-.179-1.968c-.705-7.756-2.659-14.355-5.808-19.615a9.984,9.984,0,0,1-1.4-4.635,38.849,38.849,0,0,1,19.461-.681Z" transform="translate(-0.97 0)" fill="#4ab9b1"/>
      <path id="Path_15432" data-name="Path 15432" d="M8.469,5.657h2.548V8.2H8.469Z" transform="translate(11.908 9.715)" fill="#4ab9b1"/>
      <path id="Path_15433" data-name="Path 15433" d="M6.594,7.532H9.141v2.548H6.594Z" transform="translate(8.688 12.936)" fill="#4ab9b1"/>
    </g>
  </g>
</svg>
