<svg id="delete" xmlns="http://www.w3.org/2000/svg" width="16.667" height="20" viewBox="0 0 16.667 20">
  <path id="Path_15593" data-name="Path 15593" d="M17.083,3.333H14.5A4.174,4.174,0,0,0,10.417,0H8.75A4.174,4.174,0,0,0,4.667,3.333H2.083A.833.833,0,0,0,2.083,5h.833V15.833A4.172,4.172,0,0,0,7.083,20h5a4.172,4.172,0,0,0,4.167-4.167V5h.833a.833.833,0,0,0,0-1.667ZM8.75,1.667h1.667a2.5,2.5,0,0,1,2.358,1.667H6.392A2.5,2.5,0,0,1,8.75,1.667Zm5.833,14.167a2.5,2.5,0,0,1-2.5,2.5h-5a2.5,2.5,0,0,1-2.5-2.5V5h10Z" transform="translate(-1.25)" fill="#3f4394"/>
  <path id="Path_15594" data-name="Path 15594" d="M6.458,12.917a.833.833,0,0,0,.833-.833v-5a.833.833,0,1,0-1.667,0v5A.833.833,0,0,0,6.458,12.917Z" transform="translate(0.208 2.083)" fill="#3f4394"/>
  <path id="Path_15595" data-name="Path 15595" d="M8.958,12.917a.833.833,0,0,0,.833-.833v-5a.833.833,0,1,0-1.667,0v5A.833.833,0,0,0,8.958,12.917Z" transform="translate(1.042 2.083)" fill="#3f4394"/>
</svg>
