<svg xmlns="http://www.w3.org/2000/svg" xmlns:xlink="http://www.w3.org/1999/xlink" width="98" height="98" viewBox="0 0 98 98">
  <defs>
    <clipPath id="clip-path">
      <rect id="Rectangle_8569" data-name="Rectangle 8569" width="56" height="56" transform="translate(920 782)" fill="#3f4394" stroke="#707070" stroke-width="1"/>
    </clipPath>
  </defs>
  <g id="Group_27325" data-name="Group 27325" transform="translate(-899 -761)">
    <g id="Ellipse_159" data-name="Ellipse 159" transform="translate(899 761)" fill="#fff" stroke="#3f4394" stroke-width="1">
      <circle cx="49" cy="49" r="49" stroke="none"/>
      <circle cx="49" cy="49" r="48.5" fill="none"/>
    </g>
    <g id="Mask_Group_1733" data-name="Mask Group 1733" clip-path="url(#clip-path)">
      <g id="pharmacist_1_" data-name="pharmacist (1)" transform="translate(927.226 782)">
        <path id="Path_15845" data-name="Path 15845" d="M20.774,32.516a9.947,9.947,0,0,1-9.935-9.935V13.548h1.806a12.725,12.725,0,0,0,7.587-2.529l.542-.407.542.407A12.725,12.725,0,0,0,28.9,13.548H30.71v9.032a9.947,9.947,0,0,1-9.935,9.935ZM12.645,15.355v7.226a8.129,8.129,0,0,0,16.258,0V15.355a14.553,14.553,0,0,1-8.129-2.5A14.553,14.553,0,0,1,12.645,15.355Zm0,0" fill="#3f4394"/>
        <path id="Path_15846" data-name="Path 15846" d="M29.806,25.29V23.484a2.71,2.71,0,0,0,0-5.419V16.258a4.516,4.516,0,1,1,0,9.032Zm0,0" fill="#3f4394"/>
        <path id="Path_15847" data-name="Path 15847" d="M11.742,25.29a4.516,4.516,0,0,1,0-9.032v1.806a2.71,2.71,0,1,0,0,5.419Zm0,0" fill="#3f4394"/>
        <path id="Path_15848" data-name="Path 15848" d="M41.548,56H0V41.92a6.293,6.293,0,0,1,4.438-6.035l10.014-3.13V29.806h1.806v4.277L4.976,37.609A4.5,4.5,0,0,0,1.806,41.92V54.194H39.742V41.92a4.5,4.5,0,0,0-3.168-4.31L25.29,34.083V29.806H27.1v2.949l10.015,3.13a6.292,6.292,0,0,1,4.437,6.034Zm0,0" fill="#3f4394"/>
        <path id="Path_15849" data-name="Path 15849" d="M32.516,43.355h1.806v9.032H32.516Zm0,0" fill="#3f4394"/>
        <path id="Path_15850" data-name="Path 15850" d="M28.9,46.968h9.032v1.806H28.9Zm0,0" fill="#3f4394"/>
        <path id="Path_15851" data-name="Path 15851" d="M25.3,55.059l.894-20.775L28,34.361,27.1,55.137Zm0,0" fill="#3f4394"/>
        <path id="Path_15852" data-name="Path 15852" d="M14.883,34.188l.947-1.539,11.742,7.226-.947,1.539Zm0,0" fill="#3f4394"/>
        <path id="Path_15853" data-name="Path 15853" d="M13.549,34.364l1.8-.079.9,20.776-1.805.079Zm0,0" fill="#3f4394"/>
        <path id="Path_15854" data-name="Path 15854" d="M13.978,39.875l11.742-7.224.947,1.538L14.924,41.414Zm0,0" fill="#3f4394"/>
        <path id="Path_15855" data-name="Path 15855" d="M23.286,43.355H18.263l-1.074-4.3,1.753-.437.732,2.928h2.2l.732-2.928,1.753.438Zm0,0" fill="#3f4394"/>
        <path id="Path_15856" data-name="Path 15856" d="M21.684,42.578l1.788-.255,1.806,12.644-1.788.256Zm0,0" fill="#3f4394"/>
        <path id="Path_15857" data-name="Path 15857" d="M16.264,54.967l1.809-12.644,1.788.256L18.053,55.223Zm0,0" fill="#3f4394"/>
        <path id="Path_15858" data-name="Path 15858" d="M7.226,44.258H9.032V55.1H7.226Zm0,0" fill="#3f4394"/>
        <path id="Path_15859" data-name="Path 15859" d="M17.161,22.581h-.9a2.71,2.71,0,0,1,0-5.419h.9a2.71,2.71,0,1,1,0,5.419Zm-.9-3.613a.9.9,0,0,0,0,1.806h.9a.9.9,0,0,0,0-1.806Zm0,0" fill="#3f4394"/>
        <path id="Path_15860" data-name="Path 15860" d="M11.742,18.968h2.71v1.806h-2.71Zm0,0" fill="#3f4394"/>
        <path id="Path_15861" data-name="Path 15861" d="M25.29,22.581h-.9a2.71,2.71,0,1,1,0-5.419h.9a2.71,2.71,0,1,1,0,5.419Zm-.9-3.613a.9.9,0,1,0,0,1.806h.9a.9.9,0,0,0,0-1.806Zm0,0" fill="#3f4394"/>
        <path id="Path_15862" data-name="Path 15862" d="M27.1,18.968h2.71v1.806H27.1Zm0,0" fill="#3f4394"/>
        <path id="Path_15863" data-name="Path 15863" d="M18.968,18.968h3.613v1.806H18.968Zm0,0" fill="#3f4394"/>
        <path id="Path_15864" data-name="Path 15864" d="M20.774,28a3.616,3.616,0,0,1-3.613-3.613h1.806a1.806,1.806,0,0,0,3.613,0h1.806A3.616,3.616,0,0,1,20.774,28Zm0,0" fill="#3f4394"/>
        <path id="Path_15865" data-name="Path 15865" d="M34.323,20.774H32.516V12.493A10.688,10.688,0,0,0,13.482,5.818l-.339.423-.322.064a4.729,4.729,0,0,0-3.79,4.624v9.846H7.226V10.928a6.539,6.539,0,0,1,4.912-6.319,12.494,12.494,0,0,1,22.185,7.884Zm0,0" fill="#3f4394"/>
      </g>
    </g>
  </g>
</svg>
