<svg xmlns="http://www.w3.org/2000/svg" xmlns:xlink="http://www.w3.org/1999/xlink" width="98" height="98" viewBox="0 0 98 98">
  <defs>
    <clipPath id="clip-path">
      <rect id="Rectangle_8565" data-name="Rectangle 8565" width="56" height="56" transform="translate(1326 765)" fill="#3f4394" stroke="#707070" stroke-width="1"/>
    </clipPath>
  </defs>
  <g id="Group_27323" data-name="Group 27323" transform="translate(-1293 -761)">
    <g id="Ellipse_158" data-name="Ellipse 158" transform="translate(1293 761)" fill="#fff" stroke="#3f4394" stroke-width="1">
      <circle cx="49" cy="49" r="49" stroke="none"/>
      <circle cx="49" cy="49" r="48.5" fill="none"/>
    </g>
    <g id="Mask_Group_1729" data-name="Mask Group 1729" transform="translate(-12 17)" clip-path="url(#clip-path)">
      <g id="medicine" transform="translate(1326 765)">
        <g id="Group_27318" data-name="Group 27318">
          <g id="Group_27317" data-name="Group 27317">
            <path id="Path_15835" data-name="Path 15835" d="M13.748,13.781a1.094,1.094,0,1,0,1.094,1.094A1.094,1.094,0,0,0,13.748,13.781Z" fill="#3f4394"/>
          </g>
        </g>
        <g id="Group_27320" data-name="Group 27320">
          <g id="Group_27319" data-name="Group 27319">
            <path id="Path_15836" data-name="Path 15836" d="M23.591,34.233H20.31V30.952a1.094,1.094,0,1,0-2.187,0v3.281H14.842a1.094,1.094,0,1,0,0,2.187h3.281V39.7a1.094,1.094,0,1,0,2.187,0V36.42h3.281a1.094,1.094,0,1,0,0-2.187Z" fill="#3f4394"/>
          </g>
        </g>
        <g id="Group_27322" data-name="Group 27322">
          <g id="Group_27321" data-name="Group 27321">
            <path id="Path_15837" data-name="Path 15837" d="M53.11,35.217a8.745,8.745,0,0,0-11.952-3.2l-4.443,2.565v-9.5A5.508,5.508,0,0,0,35.622,21.8L30.154,14.51V11.4a3.286,3.286,0,0,0,2.187-3.093V3.281A3.285,3.285,0,0,0,29.06,0H9.373A3.285,3.285,0,0,0,6.092,3.281V8.312a3.287,3.287,0,0,0,2.187,3.093v3.1L2.811,21.8a5.507,5.507,0,0,0-1.093,3.28V46.263a5.475,5.475,0,0,0,5.468,5.468H24.762a8.741,8.741,0,0,0,11.885,3.093l13.26-7.656A8.756,8.756,0,0,0,53.11,35.217ZM8.279,3.281A1.1,1.1,0,0,1,9.373,2.187H29.06a1.1,1.1,0,0,1,1.094,1.094V8.312A1.1,1.1,0,0,1,29.06,9.406H9.373A1.1,1.1,0,0,1,8.28,8.312V3.281ZM4.561,23.113l5.687-7.583a1.094,1.094,0,0,0,.219-.656V11.593h17.5v2.187H18.123a1.094,1.094,0,0,0,0,2.187h10.39l5.359,7.145a3.31,3.31,0,0,1,.633,1.6H3.928A3.308,3.308,0,0,1,4.561,23.113ZM7.186,49.544A3.285,3.285,0,0,1,3.9,46.263v-1.1H23.775a8.764,8.764,0,0,0,.053,4.386H7.186Zm17.447-6.562H3.9V26.9H34.528v8.937L27.9,39.67A8.685,8.685,0,0,0,24.633,42.982ZM35.554,52.93a6.562,6.562,0,1,1-6.562-11.366l5.937-3.428L41.491,49.5Zm13.26-7.656-5.429,3.135L36.823,37.043l5.429-3.134a6.562,6.562,0,1,1,6.562,11.366Z" fill="#3f4394"/>
          </g>
        </g>
      </g>
    </g>
  </g>
</svg>
