<svg xmlns="http://www.w3.org/2000/svg" xmlns:xlink="http://www.w3.org/1999/xlink" width="98" height="98" viewBox="0 0 98 98">
  <defs>
    <clipPath id="clip-path">
      <rect id="Rectangle_8570" data-name="Rectangle 8570" width="56" height="56" transform="translate(526 782)" fill="#3f4394" stroke="#707070" stroke-width="1"/>
    </clipPath>
  </defs>
  <g id="Group_27327" data-name="Group 27327" transform="translate(-505 -761)">
    <g id="Ellipse_160" data-name="Ellipse 160" transform="translate(505 761)" fill="#fff" stroke="#3f4394" stroke-width="1">
      <circle cx="49" cy="49" r="49" stroke="none"/>
      <circle cx="49" cy="49" r="48.5" fill="none"/>
    </g>
    <g id="Mask_Group_1734" data-name="Mask Group 1734" clip-path="url(#clip-path)">
      <g id="heart" transform="translate(526 784.674)">
        <path id="Path_15866" data-name="Path 15866" d="M5.469,28.722a1.094,1.094,0,1,0,1.094,1.094A1.094,1.094,0,0,0,5.469,28.722Zm0,0" fill="#3f4394"/>
        <path id="Path_15867" data-name="Path 15867" d="M50.271,32.514,39.96,36.059a4.364,4.364,0,0,0-4.3-5.15H28.573a1.094,1.094,0,0,1-.537-.141l-5.779-3.25a7.663,7.663,0,0,0-3.755-.984H10.749a3.286,3.286,0,0,0-3.093-2.187H1.094A1.094,1.094,0,0,0,0,25.44V45.128a1.094,1.094,0,0,0,1.094,1.094H7.656a3.288,3.288,0,0,0,3.062-2.105,9.985,9.985,0,0,1,3.571,1.06l5.72,3.432a13.943,13.943,0,0,0,12.944.739l20.414-8.989a4.217,4.217,0,0,0-3.1-7.844ZM8.75,42.945a1.1,1.1,0,0,1-1.094,1.089H2.188v-17.5H7.656A1.1,1.1,0,0,1,8.75,27.628Zm43.786-4.61-.035.014-20.448,9a11.755,11.755,0,0,1-10.918-.62L15.415,43.3a12.06,12.06,0,0,0-4.477-1.362V28.722H18.5a5.472,5.472,0,0,1,2.682.7l5.779,3.25a3.286,3.286,0,0,0,1.61.422h7.083a2.188,2.188,0,1,1,0,4.375H24.537a1.094,1.094,0,1,0,0,2.187H35.656a4.367,4.367,0,0,0,2.05-.512l13.3-4.572a2.03,2.03,0,1,1,1.531,3.76Zm0,0" fill="#3f4394"/>
        <path id="Path_15868" data-name="Path 15868" d="M31.855,26.584a1.095,1.095,0,0,0,1.433,0c8.924-7.734,14.444-11.648,14.444-17.73,0-4.812-3.406-8.8-8.192-8.8-3.143,0-5.55,1.812-7.1,4.53-1.547-2.713-3.951-4.53-7.1-4.53a8.079,8.079,0,0,0-7.8,6.048,1.094,1.094,0,1,0,2.1.615,5.935,5.935,0,0,1,5.7-4.476c3.12,0,5.309,2.771,6.044,5.35a1.094,1.094,0,0,0,2.108,0c.015-.053,1.534-5.35,6.046-5.35,3.423,0,6,2.842,6,6.612,0,4.865-4.756,8.373-12.974,15.459-5.007-4.3-8.984-7.326-11.245-10.287a1.094,1.094,0,1,0-1.739,1.327c2.548,3.337,6.85,6.535,12.268,11.232Zm0,0" fill="#3f4394"/>
        <path id="Path_15869" data-name="Path 15869" d="M18.484,9.69a1.094,1.094,0,1,0,1.094,1.094A1.094,1.094,0,0,0,18.484,9.69Zm0,0" fill="#3f4394"/>
      </g>
    </g>
  </g>
</svg>
