<svg xmlns="http://www.w3.org/2000/svg" width="133.817" height="135.625" viewBox="0 0 133.817 135.625">
  <path id="Path_16080" data-name="Path 16080" d="M14.917,92.417v-77.5H2V2H21.375a6.458,6.458,0,0,1,6.458,6.458v77.5h80.329l12.917-51.667H40.75V21.375h88.608a6.458,6.458,0,0,1,6.265,8.028L119.477,93.986a6.458,6.458,0,0,1-6.265,4.889H21.375A6.458,6.458,0,0,1,14.917,92.417Zm12.917,45.208A12.917,12.917,0,1,1,40.75,124.708,12.917,12.917,0,0,1,27.833,137.625Zm77.5,0a12.917,12.917,0,1,1,12.917-12.917A12.917,12.917,0,0,1,105.333,137.625Z" transform="translate(-2 -2)" fill="#c6c6ce"/>
</svg>
