<svg xmlns="http://www.w3.org/2000/svg" xmlns:xlink="http://www.w3.org/1999/xlink" width="24" height="24" viewBox="0 0 24 24">
  <defs>
    <clipPath id="clip-path">
      <rect id="Rectangle_8704" data-name="Rectangle 8704" width="24" height="24" transform="translate(891 814)" fill="#9898ae" stroke="#707070" stroke-width="1"/>
    </clipPath>
  </defs>
  <g id="Mask_Group_1801" data-name="Mask Group 1801" transform="translate(-891 -814)" clip-path="url(#clip-path)">
    <g id="twelve" transform="translate(891 814)">
      <path id="Path_16059" data-name="Path 16059" d="M24,13.226c0-.453-.423-.971-3.559-1.385a72.34,72.34,0,0,0-15.8,0c-3.136.414-3.559.932-3.559,1.385v8.955c0,.453.423.971,3.559,1.385a72.34,72.34,0,0,0,15.8,0C23.577,23.152,24,22.634,24,22.181ZM5.079,12.494c6.4-.773,16.591-.29,18.155.732-2.331,1.514-19.184,1.433-21.39,0a8.868,8.868,0,0,1,3.235-.732ZM23.3,14.866c-.087.082-.589.43-3.022.745a61.36,61.36,0,0,1-6.919.413.352.352,0,0,0,0,.7h0c2.23-.021,7.965-.211,9.934-1.062v6.468c-.09.085-.626.457-3.3.78-6.792.821-17.167.209-18.217-.78V15.666c1.976.854,7.717,1.04,9.934,1.062a.352.352,0,1,0,.007-.7A61.349,61.349,0,0,1,4.8,15.611c-2.433-.315-2.935-.664-3.022-.745v-.887c3.272,1.414,18.231,1.419,21.515,0v.887Z" fill="#9898ae"/>
      <path id="Path_16060" data-name="Path 16060" d="M.673,10.068c.091.251.328.473,1.14.473,3.029,0,12.406-3.125,17.528-5.793,2.806-1.462,3.026-2.094,2.871-2.519L21.573.474h0c-.153-.42-.715-.761-3.726-.1a62.333,62.333,0,0,0-7.4,2.219.352.352,0,1,0,.238.661,63.955,63.955,0,0,1,6.968-2.118,8.637,8.637,0,0,1,3.2-.4C19.215,2.886,3.542,8.609.754,8.051A7.776,7.776,0,0,1,3.135,6.467,58.54,58.54,0,0,1,9.15,3.821.352.352,0,0,0,8.9,3.164c-2.1.8-6.517,2.623-8.231,4-.35.281-.8.705-.634,1.15Zm20.5-8.647.365,1c-.056.111-.432.643-2.832,1.861a72.988,72.988,0,0,1-14.02,5.1c-2.621.61-3.251.444-3.365.395l-.365-1C4.449,9,18.578,3.869,21.17,1.421Z" fill="#9898ae"/>
      <path id="Path_16061" data-name="Path 16061" d="M7.809,17.623l-.651.406a.352.352,0,1,0,.372.6l.113-.07V21.7a.352.352,0,1,0,.7,0V17.922a.352.352,0,0,0-.538-.3Z" fill="#9898ae"/>
      <path id="Path_16062" data-name="Path 16062" d="M13.8,22.05a.352.352,0,0,0,.352-.352V19.3l.768,1.409a.352.352,0,0,0,.617,0L16.3,19.3v2.4a.352.352,0,1,0,.7,0V17.922a.352.352,0,0,0-.66-.168l-1.119,2.054-1.119-2.054a.352.352,0,0,0-.66.168V21.7A.352.352,0,0,0,13.8,22.05Z" fill="#9898ae"/>
      <path id="Path_16063" data-name="Path 16063" d="M11.884,21.347H10.278l1.333-1.2a1.463,1.463,0,0,0,.485-1.087,1.494,1.494,0,0,0-2.987,0,.352.352,0,0,0,.7,0,.791.791,0,1,1,1.581,0,.759.759,0,0,1-.251.564L9.508,21.094a.548.548,0,0,0,.366.956h2.01a.352.352,0,1,0,0-.7Z" fill="#9898ae"/>
    </g>
  </g>
</svg>
