<svg xmlns="http://www.w3.org/2000/svg" width="38.498" height="51.238" viewBox="0 0 38.498 51.238">
  <g id="Group_11" data-name="Group 11" transform="translate(-398.965 -308.951)">
    <g id="Group_10" data-name="Group 10" transform="translate(432.199 309.609)">
      <circle id="Ellipse_1" data-name="Ellipse 1" cx="2.302" cy="2.302" r="2.302" fill="none" stroke="#3f3fa0" stroke-miterlimit="10" stroke-width="1.317"/>
      <g id="Group_1" data-name="Group 1" transform="translate(1.428 1.009)">
        <path id="Path_1" data-name="Path 1" d="M593.9,315.261a1.483,1.483,0,0,1,.825.191.666.666,0,0,1,.287.6.673.673,0,0,1-.116.409.761.761,0,0,1-.333.247q.073.09.152.205t.157.242q.078.126.15.262t.135.268h-.6l-.133-.238q-.068-.121-.139-.235t-.14-.216q-.069-.1-.138-.185h-.266v.873H593.2v-2.358a3.047,3.047,0,0,1,.364-.048Q593.748,315.261,593.9,315.261Zm.031.459c-.039,0-.074,0-.105,0l-.088.007v.649h.152a.917.917,0,0,0,.435-.076.274.274,0,0,0,.131-.259.264.264,0,0,0-.133-.25A.821.821,0,0,0,593.928,315.72Z" transform="translate(-593.196 -315.261)" fill="#3f3fa0"/>
      </g>
    </g>
    <g id="Group_2" data-name="Group 2" transform="translate(405.67 313.159)">
      <path id="Path_2" data-name="Path 2" d="M449.76,359.111a11.415,11.415,0,0,0,2.751-.276,5.065,5.065,0,0,0,1.741-.753,2.525,2.525,0,0,0,.909-1.129,4.01,4.01,0,0,0,.252-1.455,3.359,3.359,0,0,0-1.615-2.836,23.176,23.176,0,0,0-5.552-2.434q-1.716-.6-3.432-1.38a12.633,12.633,0,0,1-3.078-1.957,9.353,9.353,0,0,1-2.221-2.861,8.91,8.91,0,0,1-.858-4.09,10.083,10.083,0,0,1,.908-4.341,9.283,9.283,0,0,1,2.574-3.287,11.8,11.8,0,0,1,4.038-2.083,18.226,18.226,0,0,1,5.35-.728,21.489,21.489,0,0,1,10.346,2.409l-2.271,6.173a21.634,21.634,0,0,0-3.255-1.33,14.189,14.189,0,0,0-4.315-.577,7.953,7.953,0,0,0-4.062.778,2.621,2.621,0,0,0-1.237,2.384,2.74,2.74,0,0,0,.454,1.606,4.4,4.4,0,0,0,1.287,1.179,11.287,11.287,0,0,0,1.918.954q1.085.427,2.4.878,2.725,1,4.744,1.982a12.7,12.7,0,0,1,3.356,2.284,8.281,8.281,0,0,1,1.993,3.061,12.251,12.251,0,0,1,.656,4.266,9.04,9.04,0,0,1-3.432,7.553q-3.433,2.685-10.346,2.685a28.9,28.9,0,0,1-4.189-.276,27.241,27.241,0,0,1-3.306-.678,18.939,18.939,0,0,1-2.473-.853c-.69-.3-2.785-1.283-3.256-1.551l3.055-3.76.446-1.766a22.609,22.609,0,0,0,4.1,1.531A20.129,20.129,0,0,0,449.76,359.111Z" transform="translate(-436.537 -329.5)" fill="none" stroke="#b3b3b3" stroke-linecap="round" stroke-linejoin="bevel" stroke-width="1.317"/>
    </g>
    <g id="Group_9" data-name="Group 9" transform="translate(398.965 316.676)">
      <g id="Group_4" data-name="Group 4" transform="translate(0 36.274)">
        <g id="Group_3" data-name="Group 3">
          <path id="Path_3" data-name="Path 3" d="M401.091,561.32a2.057,2.057,0,0,0,.5-.05.916.916,0,0,0,.316-.137.46.46,0,0,0,.165-.206.734.734,0,0,0,.046-.266.614.614,0,0,0-.293-.518,4.19,4.19,0,0,0-1.008-.444q-.312-.11-.623-.252a2.3,2.3,0,0,1-.559-.357,1.706,1.706,0,0,1-.4-.522,1.634,1.634,0,0,1-.156-.747,1.85,1.85,0,0,1,.165-.793,1.694,1.694,0,0,1,.467-.6,2.139,2.139,0,0,1,.733-.38,3.292,3.292,0,0,1,.971-.133,3.883,3.883,0,0,1,1.878.44l-.412,1.127a3.894,3.894,0,0,0-.591-.243,2.562,2.562,0,0,0-.783-.105,1.438,1.438,0,0,0-.738.142.479.479,0,0,0-.224.435.5.5,0,0,0,.082.293.8.8,0,0,0,.234.215,2.065,2.065,0,0,0,.348.174q.2.078.435.16.495.183.861.362a2.3,2.3,0,0,1,.609.417,1.512,1.512,0,0,1,.362.559,2.251,2.251,0,0,1,.119.779,1.654,1.654,0,0,1-.623,1.379,3.008,3.008,0,0,1-1.878.49,5.2,5.2,0,0,1-.76-.051,4.89,4.89,0,0,1-.6-.124,3.406,3.406,0,0,1-.449-.156,3.33,3.33,0,0,1-.316-.156l.4-1.136a3.579,3.579,0,0,0,.7.279A3.636,3.636,0,0,0,401.091,561.32Z" transform="translate(-398.965 -555.3)" fill="#3f3fa0"/>
          <path id="Path_4" data-name="Path 4" d="M430.539,559.584v-6.89l1.365-.22v2.309a2.831,2.831,0,0,1,.353-.087,2.215,2.215,0,0,1,.417-.041,2.58,2.58,0,0,1,.976.16,1.518,1.518,0,0,1,.623.454,1.756,1.756,0,0,1,.33.7,3.868,3.868,0,0,1,.1.9v2.721h-1.365v-2.556a1.884,1.884,0,0,0-.169-.935.678.678,0,0,0-.628-.275,1.746,1.746,0,0,0-.344.032q-.16.032-.289.069v3.665Z" transform="translate(-424.904 -552.474)" fill="#3f3fa0"/>
          <path id="Path_5" data-name="Path 5" d="M461.64,553.793a.75.75,0,0,1-.243.591.869.869,0,0,1-1.145,0,.841.841,0,0,1,0-1.182.869.869,0,0,1,1.145,0A.75.75,0,0,1,461.64,553.793Zm-.128,6.212h-1.365v-4.819h1.365Z" transform="translate(-449.115 -552.896)" fill="#3f3fa0"/>
          <path id="Path_6" data-name="Path 6" d="M477.705,552.474a3,3,0,0,1,.705.078,3.471,3.471,0,0,1,.495.151l-.266,1.09a1.791,1.791,0,0,0-.4-.124,2.132,2.132,0,0,0-.4-.041,1.111,1.111,0,0,0-.417.069.644.644,0,0,0-.266.188.725.725,0,0,0-.137.284,1.47,1.47,0,0,0-.041.357v.238h1.686V555.9h-1.686v3.683h-1.365v-5.076a1.874,1.874,0,0,1,2.089-2.034Z" transform="translate(-461.937 -552.474)" fill="#3f3fa0"/>
          <path id="Path_7" data-name="Path 7" d="M497.126,564.59a3.166,3.166,0,0,1,1.008.137,1.569,1.569,0,0,1,.646.394,1.452,1.452,0,0,1,.344.623,3.079,3.079,0,0,1,.1.815v2.84q-.293.064-.816.151a7.841,7.841,0,0,1-1.264.087,3.994,3.994,0,0,1-.847-.083,1.836,1.836,0,0,1-.655-.27,1.234,1.234,0,0,1-.421-.49,1.691,1.691,0,0,1-.147-.742,1.405,1.405,0,0,1,.17-.715,1.3,1.3,0,0,1,.454-.467,2.052,2.052,0,0,1,.651-.252,3.662,3.662,0,0,1,.76-.078,4.286,4.286,0,0,1,.472.023,2.107,2.107,0,0,1,.334.059V566.5a.756.756,0,0,0-.211-.559,1.021,1.021,0,0,0-.733-.211,4.678,4.678,0,0,0-.687.05,2.956,2.956,0,0,0-.586.142l-.174-1.1c.079-.024.179-.05.3-.078s.249-.052.389-.073.289-.04.445-.055S496.967,564.59,497.126,564.59Zm.11,3.995c.134,0,.262,0,.385-.009a2.637,2.637,0,0,0,.293-.027v-1.035q-.082-.018-.247-.037a2.772,2.772,0,0,0-.3-.018,2.717,2.717,0,0,0-.362.023.945.945,0,0,0-.3.087.507.507,0,0,0-.2.174.483.483,0,0,0-.073.275.468.468,0,0,0,.215.444A1.189,1.189,0,0,0,497.236,568.585Z" transform="translate(-477.923 -562.428)" fill="#3f3fa0"/>
          <path id="Path_8" data-name="Path 8" d="M527.682,556.324a3.974,3.974,0,0,1,2.181.5,1.811,1.811,0,0,1,.761,1.636,1.835,1.835,0,0,1-.77,1.654,3.983,3.983,0,0,1-2.2.509h-.449v2.125h-1.429v-6.258a8.094,8.094,0,0,1,.99-.128Q527.288,556.324,527.682,556.324Zm.092,1.219c-.1,0-.206,0-.307.009l-.261.018V559.4h.449a2.433,2.433,0,0,0,1.118-.2.774.774,0,0,0,.376-.751.9.9,0,0,0-.1-.44.731.731,0,0,0-.275-.279,1.236,1.236,0,0,0-.435-.147A3.6,3.6,0,0,0,527.773,557.543Z" transform="translate(-503.146 -555.637)" fill="#20cebd"/>
          <path id="Path_9" data-name="Path 9" d="M561.231,566.054q-.183-.046-.431-.1a2.671,2.671,0,0,0-.531-.05,2.48,2.48,0,0,0-.307.023,1.82,1.82,0,0,0-.27.05v3.683h-1.365V565.1a8.239,8.239,0,0,1,.866-.243,5,5,0,0,1,1.113-.115q.11,0,.266.014t.312.037q.156.023.312.055a1.473,1.473,0,0,1,.265.078Z" transform="translate(-529.888 -562.554)" fill="#20cebd"/>
          <path id="Path_10" data-name="Path 10" d="M582.933,567.119a3.134,3.134,0,0,1-.165,1.04,2.26,2.26,0,0,1-.476.806,2.144,2.144,0,0,1-.747.518,2.666,2.666,0,0,1-1.943,0,2.141,2.141,0,0,1-.746-.518,2.365,2.365,0,0,1-.486-.806,2.984,2.984,0,0,1-.174-1.04,2.877,2.877,0,0,1,.179-1.035,2.348,2.348,0,0,1,.495-.8,2.222,2.222,0,0,1,.751-.513,2.419,2.419,0,0,1,.948-.183,2.444,2.444,0,0,1,.957.183,2.177,2.177,0,0,1,.747.513,2.334,2.334,0,0,1,.486.8A2.95,2.95,0,0,1,582.933,567.119Zm-1.393,0a1.718,1.718,0,0,0-.252-.994.825.825,0,0,0-.719-.362.836.836,0,0,0-.724.362,1.692,1.692,0,0,0-.256.994,1.737,1.737,0,0,0,.256,1,.829.829,0,0,0,.724.371.818.818,0,0,0,.719-.371A1.764,1.764,0,0,0,581.54,567.119Z" transform="translate(-546.211 -562.428)" fill="#20cebd"/>
        </g>
      </g>
      <g id="Group_8" data-name="Group 8" transform="translate(3.982)">
        <g id="Group_7" data-name="Group 7">
          <path id="Path_11" data-name="Path 11" d="M442.934,371.753c0,.115,0,.226-.014.336a3.813,3.813,0,0,1-.237,1.127,2.43,2.43,0,0,1-.719.982c-.06.053-.124.1-.191.152a5.021,5.021,0,0,1-1.739.758,11.378,11.378,0,0,1-2.748.276,19.929,19.929,0,0,1-5.624-.682c-.272-.081-.537-.164-.793-.249a20.766,20.766,0,0,1-2.108-.811c-.341-.154-.659-.313-.958-.477l-.627,1.762-5.9,7.63V357.622c0-4.6,3.377-8.342,7.57-8.414a9.307,9.307,0,0,0-1.751,2.548,10.167,10.167,0,0,0-.908,4.361,9,9,0,0,0,.857,4.11,9.346,9.346,0,0,0,2.219,2.875,12.594,12.594,0,0,0,3.078,1.967q1.714.785,3.428,1.387a23.022,23.022,0,0,1,5.548,2.447A3.379,3.379,0,0,1,442.934,371.753Z" transform="translate(-421.278 -349.208)" fill="#3f3fa0"/>
          <path id="Path_12" data-name="Path 12" d="M507.559,378.278c-.014.182-.023.281-.023.281v-.3a13.445,13.445,0,0,0-2.721-1.723q-2.015-.981-4.739-1.991-1.313-.456-2.4-.883a11.333,11.333,0,0,1-1.917-.958,4.415,4.415,0,0,1-1.286-1.187,2.749,2.749,0,0,1-.454-1.613,2.636,2.636,0,0,1,1.235-2.4,7.911,7.911,0,0,1,4.059-.783,14.149,14.149,0,0,1,4.313.581,21.5,21.5,0,0,1,3.253,1.336l0-.014.018-.051s0,0,0,.007C508.013,371.06,507.658,376.928,507.559,378.278Z" transform="translate(-481.042 -363.6)" fill="#20cebd"/>
          <g id="Group_5" data-name="Group 5" transform="translate(25.847 4.979)">
            <line id="Line_1" data-name="Line 1" x1="0.018" y2="0.051" fill="#20cebd"/>
          </g>
          <g id="Group_6" data-name="Group 6" transform="translate(25.847 4.979)">
            <path id="Path_13" data-name="Path 13" d="M566.112,377.157l.018-.051" transform="translate(-566.112 -377.106)" fill="#20cebd"/>
          </g>
        </g>
      </g>
    </g>
  </g>
</svg>
