<svg xmlns="http://www.w3.org/2000/svg" xmlns:xlink="http://www.w3.org/1999/xlink" width="32" height="32" viewBox="0 0 32 32">
  <defs>
    <clipPath id="clip-path">
      <rect id="Rectangle_8713" data-name="Rectangle 8713" width="32" height="32" fill="#151534" stroke="#707070" stroke-width="1"/>
    </clipPath>
  </defs>
  <g id="Mask_Group_1805" data-name="Mask Group 1805" clip-path="url(#clip-path)">
    <g id="shopping-cart-2-line">
      <path id="Path_16075" data-name="Path 16075" d="M0,0H32V32H0Z" fill="none"/>
      <path id="Path_16076" data-name="Path 16076" d="M5.333,8.552,1.009,4.229,2.9,2.343,7.219,6.667H27.541a1.333,1.333,0,0,1,1.277,1.716l-3.2,10.667A1.333,1.333,0,0,1,24.341,20H8v2.667H22.667v2.667h-16A1.333,1.333,0,0,1,5.333,24ZM8,9.333v8H23.349l2.4-8ZM7.333,30.667a2,2,0,1,1,2-2A2,2,0,0,1,7.333,30.667Zm16,0a2,2,0,1,1,2-2A2,2,0,0,1,23.333,30.667Z" transform="translate(0)" fill="#151534"/>
    </g>
  </g>
</svg>
