<svg xmlns="http://www.w3.org/2000/svg" xmlns:xlink="http://www.w3.org/1999/xlink" width="32" height="32" viewBox="0 0 32 32">
  <defs>
    <clipPath id="clip-path">
      <rect id="Rectangle_8664" data-name="Rectangle 8664" width="32" height="32" transform="translate(334.5 151)" fill="#4ab9b1" stroke="#707070" stroke-width="1"/>
    </clipPath>
  </defs>
  <g id="Mask_Group_1774" data-name="Mask Group 1774" transform="translate(-334.5 -151)" clip-path="url(#clip-path)">
    <g id="dna" transform="translate(340.188 151)">
      <path id="Path_15976" data-name="Path 15976" d="M2.844,32H23.469v-.937A21.772,21.772,0,0,0,17.39,16,21.781,21.781,0,0,0,23.469.938V0H2.844V.938A21.772,21.772,0,0,0,8.923,16,21.781,21.781,0,0,0,2.844,31.063ZM8.5,30.125a16.019,16.019,0,0,1,.222-1.875h8.867a15.831,15.831,0,0,1,.228,1.875ZM16.423,24.5a16.532,16.532,0,0,1,.7,1.875H9.172a16.2,16.2,0,0,1,.7-1.875Zm-5.559-1.875a15.953,15.953,0,0,1,2.293-2.909,15.869,15.869,0,0,1,2.279,2.909Zm10.707,7.5H19.693A18.073,18.073,0,0,0,14.559,18.47c.094-.074.188-.148.285-.22q.612-.459,1.186-.959A19.894,19.894,0,0,1,21.571,30.125ZM17.816,1.875a16.019,16.019,0,0,1-.222,1.875H8.726A15.832,15.832,0,0,1,8.5,1.875ZM9.89,7.5a16.5,16.5,0,0,1-.7-1.876h7.956a16.161,16.161,0,0,1-.7,1.876Zm5.559,1.875a15.951,15.951,0,0,1-2.293,2.908,15.869,15.869,0,0,1-2.279-2.908ZM4.741,1.875H6.619a18.173,18.173,0,0,0,1.538,6.37,18.053,18.053,0,0,0,3.6,5.285c-.094.074-.189.148-.285.22q-.612.459-1.186.959A19.893,19.893,0,0,1,4.741,1.875ZM12.594,15.25a17.959,17.959,0,0,0,7.1-13.376h1.877A19.845,19.845,0,0,1,13.719,16.75a17.958,17.958,0,0,0-7.1,13.375H4.741A19.845,19.845,0,0,1,12.594,15.25Z" transform="translate(-2.844)" fill="#4ab9b1"/>
    </g>
  </g>
</svg>
