<svg xmlns="http://www.w3.org/2000/svg" xmlns:xlink="http://www.w3.org/1999/xlink" width="32" height="32" viewBox="0 0 32 32">
  <defs>
    <clipPath id="clip-path">
      <rect id="Rectangle_8672" data-name="Rectangle 8672" width="32" height="32" transform="translate(335.5 187)" fill="#4ab9b1" stroke="#707070" stroke-width="1"/>
    </clipPath>
  </defs>
  <g id="Mask_Group_1782" data-name="Mask Group 1782" transform="translate(-335.5 -187)" clip-path="url(#clip-path)">
    <g id="broken-bone" transform="translate(335.5 187)">
      <path id="Path_15995" data-name="Path 15995" d="M9.45,16.4l2.149-2.13v5.322l8.226-8.252a3.745,3.745,0,1,0,1.413-7.336.829.829,0,0,1-.707-.706,3.745,3.745,0,1,0-7.336,1.414L7.464,10.444ZM15.409,5.15l-.284-.6a1.868,1.868,0,0,1,3.009-2.127,1.855,1.855,0,0,1,.535,1.1,2.712,2.712,0,0,0,2.343,2.343,1.871,1.871,0,1,1-1.028,3.544l-.6-.285-5.912,5.931V9.773l-3.2,3.173-.665-2Z" transform="translate(7.464 0)" fill="#4ab9b1"/>
      <path id="Path_15996" data-name="Path 15996" d="M3.3,21.792a.829.829,0,0,1,.707.706,3.745,3.745,0,1,0,7.336-1.414l5.731-5.731L15.086,9.394l-2.149,2.13V6.2L4.712,14.455A3.745,3.745,0,1,0,3.3,21.792Zm-.874-5.048a1.874,1.874,0,0,1,2.127-.357l.6.285,5.912-5.931v5.284l3.2-3.173.665,2-5.8,5.8.284.6A1.868,1.868,0,0,1,6.4,23.372a1.855,1.855,0,0,1-.535-1.1A2.713,2.713,0,0,0,3.524,19.93a1.875,1.875,0,0,1-1.1-3.187Z" transform="translate(0 6.203)" fill="#4ab9b1"/>
      <path id="Path_15997" data-name="Path 15997" d="M4.188,10H6.063V6.438H3.438V4.688H1.563V8.312H4.188Z" transform="translate(1.563 4.688)" fill="#4ab9b1"/>
      <path id="Path_15998" data-name="Path 15998" d="M6.375,6.063H10V4.188H8.25V1.563H4.688V3.438H6.375Z" transform="translate(4.688 1.563)" fill="#4ab9b1"/>
      <path id="Path_15999" data-name="Path 15999" d="M8.656,12.156v1.875h1.75v2.625h3.562V14.781H12.281V12.156Z" transform="translate(8.656 12.156)" fill="#4ab9b1"/>
      <path id="Path_16000" data-name="Path 16000" d="M16.718,10.406H14.031V8.656H12.156v3.625h2.687v1.687h1.875Z" transform="translate(12.156 8.656)" fill="#4ab9b1"/>
    </g>
  </g>
</svg>
