<svg xmlns="http://www.w3.org/2000/svg" xmlns:xlink="http://www.w3.org/1999/xlink" width="32" height="32" viewBox="0 0 32 32">
  <defs>
    <clipPath id="clip-path">
      <rect id="Rectangle_8670" data-name="Rectangle 8670" width="32" height="32" transform="translate(332.5 184)" fill="#4ab9b1" stroke="#707070" stroke-width="1"/>
    </clipPath>
  </defs>
  <g id="Mask_Group_1780" data-name="Mask Group 1780" transform="translate(-332.5 -184)" clip-path="url(#clip-path)">
    <g id="stomachache" transform="translate(335.375 184)">
      <path id="Path_15988" data-name="Path 15988" d="M7.063,28.251a5.413,5.413,0,0,1,.8-2.812,10.665,10.665,0,0,0,8.576,4.624c6.517,0,11.25-6.225,11.25-13.125,0-6.972-4.793-13.125-11.25-13.125a9.764,9.764,0,0,0-2.487.321A5.532,5.532,0,0,1,14.516,1.7L15.364,0H9.1L8.888.643a11.152,11.152,0,0,0,1.282,9.619,5.324,5.324,0,0,1,.759,4.216c-.707,2.992-3.258,3.694-3.95,4.224a11.021,11.021,0,0,0-5.542,9.549V32H7.062ZM10.481,1.874h1.946a7.545,7.545,0,0,0-.215,3.7l.219,1.108L13.48,6.26a7.937,7.937,0,0,1,2.957-.572c3.695,0,6.9,2.578,8.423,6.314a13.433,13.433,0,0,1-5.314-.641,15.275,15.275,0,0,0-7.04-.62,7.343,7.343,0,0,0-.776-1.518,9.262,9.262,0,0,1-1.249-7.348ZM5.188,30.125H3.313V28.251a9.142,9.142,0,0,1,4.6-7.921c.619-.487,3.919-1.5,4.845-5.421a7.286,7.286,0,0,0,.168-2.334,13.4,13.4,0,0,1,6.032.564,15.3,15.3,0,0,0,4.831.781,15.257,15.257,0,0,0,1.663-.092,13.324,13.324,0,0,1,.364,3.108c0,6.2-4.206,11.25-9.375,11.25A9.053,9.053,0,0,1,8.743,23.36L8.124,22.3l-.861.88a7.217,7.217,0,0,0-2.075,5.075Z" transform="translate(-1.437 0)" fill="#4ab9b1"/>
      <path id="Path_15989" data-name="Path 15989" d="M12.688,13.156V11.281a.938.938,0,1,1,.938-.937H15.5a2.813,2.813,0,1,0-2.813,2.813Z" transform="translate(7 7.531)" fill="#4ab9b1"/>
      <path id="Path_15990" data-name="Path 15990" d="M8.938,15.031a2.813,2.813,0,0,0,0-5.625v1.875A.938.938,0,1,1,8,12.219H6.125A2.816,2.816,0,0,0,8.938,15.031Z" transform="translate(3.25 9.406)" fill="#4ab9b1"/>
      <path id="Path_15991" data-name="Path 15991" d="M9.875,11.281H11.75v1.875H9.875Z" transform="translate(7 11.281)" fill="#4ab9b1"/>
      <path id="Path_15992" data-name="Path 15992" d="M8,7.531H9.875V9.406H8Z" transform="translate(5.125 7.531)" fill="#4ab9b1"/>
    </g>
  </g>
</svg>
