<svg xmlns="http://www.w3.org/2000/svg" xmlns:xlink="http://www.w3.org/1999/xlink" width="32" height="32" viewBox="0 0 32 32">
  <defs>
    <clipPath id="clip-path">
      <rect id="Rectangle_8662" data-name="Rectangle 8662" width="32" height="32" transform="translate(335.5 146)" fill="#4ab9b1" stroke="#707070" stroke-width="1"/>
    </clipPath>
  </defs>
  <g id="Mask_Group_1772" data-name="Mask Group 1772" transform="translate(-335.5 -146)" clip-path="url(#clip-path)">
    <g id="fetus" transform="translate(335.5 146)">
      <path id="Path_15973" data-name="Path 15973" d="M16,0A16,16,0,1,0,32,16,16.035,16.035,0,0,0,16,0Zm0,30.125A14.117,14.117,0,0,1,5.614,6.437a11.679,11.679,0,0,0,4.061,5.92,10.314,10.314,0,0,0,.145,1.427,4.962,4.962,0,0,0-4.834,1.3l-.069.069a2.813,2.813,0,0,0,2.153,4.8,7.5,7.5,0,0,0-.013.936,6.979,6.979,0,0,0,2.049,4.663,6.57,6.57,0,0,0,9.281,0l.928-.928A10.264,10.264,0,0,0,22.3,18.159a6.562,6.562,0,1,0-8.252-8.952,2.806,2.806,0,0,0-4.023,1C7.955,8.248,7.774,6.545,7.057,5.075A14.122,14.122,0,1,1,16,30.125Zm-4.243-8.557a4.678,4.678,0,0,0,.693-5.741,8.427,8.427,0,0,1-.89-4.336.938.938,0,0,1,1.872.113,6.562,6.562,0,0,0,4.093,6.507l.7-1.74a4.7,4.7,0,1,1,2.936.186l-.691.18c-.011.732-.011.728-.012.8a8.4,8.4,0,0,1-2.469,5.753l-.928.928a4.693,4.693,0,0,1-6.629,0,5.2,5.2,0,0,1-1.212-5.388l.417-.552L8.363,17.008l-.795.795a.938.938,0,0,1-1.326-1.326l.069-.069a2.948,2.948,0,0,1,3.753-.453,2.815,2.815,0,0,1,.367,4.289Z" fill="#4ab9b1"/>
    </g>
  </g>
</svg>
