<svg xmlns="http://www.w3.org/2000/svg" xmlns:xlink="http://www.w3.org/1999/xlink" width="32" height="32" viewBox="0 0 32 32">
  <defs>
    <clipPath id="clip-path">
      <rect id="Rectangle_8663" data-name="Rectangle 8663" width="32" height="32" transform="translate(334.5 163)" fill="#4ab9b1" stroke="#707070" stroke-width="1"/>
    </clipPath>
  </defs>
  <g id="Mask_Group_1773" data-name="Mask Group 1773" transform="translate(-334.5 -163)" clip-path="url(#clip-path)">
    <g id="dermathology" transform="translate(334.5 168.812)">
      <path id="Path_15974" data-name="Path 15974" d="M20.059,8.873a4.688,4.688,0,1,1-8.124.01l2.441-4.226H0V21.531H32V4.656H17.624ZM1.875,6.531h9.253l-.817,1.415a6.564,6.564,0,0,0-.382.781,3.27,3.27,0,0,0-1.414-.32A3.214,3.214,0,0,0,5.829,9.828a1.316,1.316,0,0,1-2.19,0A3.175,3.175,0,0,0,1.875,8.534v-2Zm28.25,13.125H1.875V10.627a1.363,1.363,0,0,1,.2.241,3.191,3.191,0,0,0,5.31,0,1.326,1.326,0,0,1,1.126-.586,1.343,1.343,0,0,1,.947.372c-.016.188-.025.376-.025.565a6.563,6.563,0,1,0,13.125,0c0-.158-.006-.316-.018-.474a1.316,1.316,0,0,1,2.1.123,3.25,3.25,0,0,0,5.373,0,1.362,1.362,0,0,1,.111-.144Zm0-13.125V8.563a3.192,3.192,0,0,0-1.671,1.265,1.375,1.375,0,0,1-2.252,0,3.19,3.19,0,0,0-4.118-1.066,6.644,6.644,0,0,0-.4-.825l-.812-1.406h9.253Z" transform="translate(0 -1.156)" fill="#4ab9b1"/>
      <path id="Path_15975" data-name="Path 15975" d="M11.944,4.232,10.618,2.906a7.421,7.421,0,0,0-2.15,5.215v.847l-1.5,2.6a2.812,2.812,0,1,0,4.873,0l-1.5-2.6V8.121a5.533,5.533,0,0,1,1.6-3.889ZM9.406,13.907a.939.939,0,0,1-.938-.937.924.924,0,0,1,.125-.467l.813-1.408.813,1.408a.924.924,0,0,1,.125.468.939.939,0,0,1-.938.938Z" transform="translate(6.594 -2.906)" fill="#4ab9b1"/>
    </g>
  </g>
</svg>
