<svg xmlns="http://www.w3.org/2000/svg" xmlns:xlink="http://www.w3.org/1999/xlink" width="32" height="32" viewBox="0 0 32 32">
  <defs>
    <clipPath id="clip-path">
      <rect id="Rectangle_8665" data-name="Rectangle 8665" width="32" height="32" transform="translate(330.5 150)" fill="#4ab9b1" stroke="#707070" stroke-width="1"/>
    </clipPath>
  </defs>
  <g id="Mask_Group_1775" data-name="Mask Group 1775" transform="translate(-330.5 -150)" clip-path="url(#clip-path)">
    <g id="red-eyes" transform="translate(330.5 153.806)">
      <path id="Path_15977" data-name="Path 15977" d="M4.9,16.24c3.18,2.516,7.011,4.424,11.1,4.424s7.918-1.908,11.1-4.424A27.986,27.986,0,0,0,32,11.283a27.962,27.962,0,0,0-4.9-4.957C23.917,3.81,20.087,1.9,16,1.9S8.082,3.81,4.9,6.326A27.987,27.987,0,0,0,0,11.283,27.962,27.962,0,0,0,4.9,16.24ZM20.69,10.345A4.69,4.69,0,1,1,16,5.655,4.7,4.7,0,0,1,20.69,10.345ZM6.1,7.77c2.27-1.79,5.78-3.916,9.7-3.987a6.566,6.566,0,1,0,.4,0c3.916.071,7.426,2.2,9.7,3.987a27.759,27.759,0,0,1,2.152,1.89,7.245,7.245,0,0,0-1.25.463l-1.92-1.28L23.84,10.4l1.268.845q-.168.149-.328.309l-.938.938,1.327,1.327.938-.938A5.426,5.426,0,0,1,29.579,11.3,28.161,28.161,0,0,1,25.9,14.8c-2.309,1.821-5.9,3.991-9.9,3.991S8.411,16.617,6.1,14.8A27.743,27.743,0,0,1,3.947,12.9,7.314,7.314,0,0,0,5.2,12.441l1.923,1.282L8.16,12.162l-1.268-.845A7.4,7.4,0,0,0,8.166,9.849L6.6,8.816A5.462,5.462,0,0,1,2.42,11.269,28.162,28.162,0,0,1,6.1,7.77Z" transform="translate(0 -1.903)" fill="#4ab9b1"/>
      <path id="Path_15978" data-name="Path 15978" d="M9.407,10.345A2.814,2.814,0,1,0,6.593,7.531,2.817,2.817,0,0,0,9.407,10.345Zm0-3.752a.938.938,0,1,1-.938.938A.939.939,0,0,1,9.407,6.593Z" transform="translate(6.593 0.911)" fill="#4ab9b1"/>
      <path id="Path_15979" data-name="Path 15979" d="M17.88,15.5A2.815,2.815,0,0,0,17.5,14.1L15.066,9.876,12.628,14.1A2.814,2.814,0,1,0,17.88,15.5Zm-3.752,0a.923.923,0,0,1,.125-.468l.813-1.409.813,1.408A.924.924,0,0,1,16,15.5a.938.938,0,0,1-1.876,0Z" transform="translate(12.252 6.07)" fill="#4ab9b1"/>
    </g>
  </g>
</svg>
