<svg xmlns="http://www.w3.org/2000/svg" xmlns:xlink="http://www.w3.org/1999/xlink" width="32" height="32" viewBox="0 0 32 32">
  <defs>
    <clipPath id="clip-path">
      <rect id="Rectangle_8658" data-name="Rectangle 8658" width="32" height="32" transform="translate(335 180)" fill="#4ab9b1" stroke="#707070" stroke-width="1"/>
    </clipPath>
  </defs>
  <g id="Mask_Group_1768" data-name="Mask Group 1768" transform="translate(-335 -180)" clip-path="url(#clip-path)">
    <g id="heart-rate" transform="translate(338.815 180)">
      <path id="Path_15961" data-name="Path 15961" d="M1.907,22.564H5.071a21.969,21.969,0,0,0,2.145,4.2C9.366,30.043,11.936,32,14.093,32s4.727-1.957,6.876-5.235a21.966,21.966,0,0,0,2.145-4.2h3.163V20.69H23.731A17.681,17.681,0,0,0,24.4,16a16.539,16.539,0,0,0-.541-4.329,2.8,2.8,0,0,1,1.478-.42h.937V5.624l-.944.006A8.437,8.437,0,0,0,21.19,6.743,9.616,9.616,0,0,0,19.939,5.63h.714V0L19.71.006a8.435,8.435,0,0,0-5.963,2.505,8.566,8.566,0,0,0-1.088,1.341,9.8,9.8,0,0,0-1.379.293V.006H5.657V8.518A14.387,14.387,0,0,0,3.782,16a17.681,17.681,0,0,0,.672,4.687H1.907ZM19.4,25.737c-1.721,2.625-3.855,4.389-5.309,4.389s-3.587-1.764-5.309-4.389a20.161,20.161,0,0,1-1.695-3.172H9.048l1.3-2.591,3.749,7.5,3.749-7.5,1.3,2.59H21.1A20.139,20.139,0,0,1,19.4,25.737Zm5-18.159v1.9a4.662,4.662,0,0,0-1.168.4,11.468,11.468,0,0,0-.875-1.639A6.548,6.548,0,0,1,24.4,7.578ZM7.531,1.881H9.406V4.908A9.529,9.529,0,0,0,7.531,6.231Zm4.125,4.1a8.49,8.49,0,0,0-.369,2.164c-2.169,1.1-3.266,3.447-3.616,5.845l1.855.271c.35-2.392,1.421-4.034,3.016-4.623l.613-.226V8.494a6.634,6.634,0,0,1,5.624-6.539V3.85A4.7,4.7,0,0,0,15.03,8.442H16.9a2.8,2.8,0,0,1,.819-1.982c3.019,1.516,4.8,5.034,4.8,9.543a16.1,16.1,0,0,1-.748,4.687H20.3l-2.454-4.908-3.749,7.5-3.749-7.5L7.889,20.69H6.4A16.094,16.094,0,0,1,5.657,16c0-5.138,2.3-8.89,6-10.019Z" transform="translate(-1.907 0)" fill="#4ab9b1"/>
    </g>
  </g>
</svg>
