<svg xmlns="http://www.w3.org/2000/svg" xmlns:xlink="http://www.w3.org/1999/xlink" width="32" height="32" viewBox="0 0 32 32">
  <defs>
    <clipPath id="clip-path">
      <rect id="Rectangle_8661" data-name="Rectangle 8661" width="32" height="32" transform="translate(332.5 154)" fill="#4ab9b1" stroke="#707070" stroke-width="1"/>
    </clipPath>
  </defs>
  <g id="Mask_Group_1771" data-name="Mask Group 1771" transform="translate(-332.5 -154)" clip-path="url(#clip-path)">
    <g id="ovaries" transform="translate(335.496 154)">
      <path id="Path_15970" data-name="Path 15970" d="M3.008,7.219,5.07,4.681,3.547,2.805l1.2-1.477L3.669,0l-2.277,2.8L2.915,4.681,1.93,5.893Z" transform="translate(1.391 -0.001)" fill="#4ab9b1"/>
      <path id="Path_15971" data-name="Path 15971" d="M11.174,0,10.1,1.328l1.2,1.478L9.773,4.681,11.836,7.22l1.077-1.326-.985-1.212,1.524-1.876Z" transform="translate(9.773 -0.002)" fill="#4ab9b1"/>
      <path id="Path_15972" data-name="Path 15972" d="M19.054,5.993A6.831,6.831,0,0,0,13,1.522a6.831,6.831,0,0,0-6.05,4.471C2.591,7.1,0,9.274,0,11.838a4.237,4.237,0,0,0,1.219,2.9,4.4,4.4,0,0,0,.974,3.782c1.1,1.36,2.8,1.863,3.771.663.906-1.116.67-3.154-.539-4.642-.83-1.022-2.094-1.676-3.153-1.16a2.356,2.356,0,0,1-.749-1.54c0-1.14,1.51-2.713,4.791-3.74a10.307,10.307,0,0,0-.169,1.865,9.483,9.483,0,0,0,2.06,5.993l.656,7.387a5.35,5.35,0,0,0,1.856,3.7V29.78H15.29V27.045a5.352,5.352,0,0,0,1.856-3.7l.656-7.386a9.484,9.484,0,0,0,2.06-5.993A10.307,10.307,0,0,0,19.692,8.1c3.282,1.027,4.791,2.6,4.791,3.74a2.356,2.356,0,0,1-.749,1.54c-1.06-.516-2.321.136-3.153,1.16-1.208,1.487-1.445,3.526-.539,4.642.987,1.215,2.675.686,3.771-.663a4.4,4.4,0,0,0,.974-3.782,4.236,4.236,0,0,0,1.219-2.9c0-2.564-2.591-4.733-6.953-5.844ZM2.732,15.2c.235-.29.988-.11,1.616.663.658.81.758,1.719.539,1.989S3.929,18,3.271,17.19s-.758-1.719-.539-1.989ZM13,3.4a5.386,5.386,0,0,1,4.818,3.751H8.186A5.386,5.386,0,0,1,13,3.4Zm.823,5.627A7.954,7.954,0,0,0,13,10.467a7.956,7.956,0,0,0-.823-1.443Zm2.522,6.029-.718,8.082a3.341,3.341,0,0,1-1.865,2.793V27.9H12.242V25.928a3.358,3.358,0,0,1-1.865-2.791l-.718-8.084A7.142,7.142,0,0,1,7.67,9.962,7.927,7.927,0,0,1,7.941,7.9l1.674,1.03a6.071,6.071,0,0,1,2.627,5.231v9.06h1.524v-9.06a6.071,6.071,0,0,1,2.627-5.231L18.066,7.9a7.924,7.924,0,0,1,.271,2.067,7.168,7.168,0,0,1-1.989,5.091Zm6.388,2.136c-.658.81-1.4.934-1.616.663s-.119-1.18.539-1.989c.621-.765,1.379-.955,1.616-.663.22.27.119,1.18-.539,1.989Z" transform="translate(0 2.22)" fill="#4ab9b1"/>
    </g>
  </g>
</svg>
