<svg xmlns="http://www.w3.org/2000/svg" xmlns:xlink="http://www.w3.org/1999/xlink" width="32" height="32" viewBox="0 0 32 32">
  <defs>
    <clipPath id="clip-path">
      <rect id="Rectangle_8667" data-name="Rectangle 8667" width="32" height="32" transform="translate(335.5 147)" fill="#4ab9b1" stroke="#707070" stroke-width="1"/>
    </clipPath>
  </defs>
  <g id="Mask_Group_1777" data-name="Mask Group 1777" transform="translate(-335.5 -147)" clip-path="url(#clip-path)">
    <g id="hiv" transform="translate(335.503 147)">
      <path id="Path_15983" data-name="Path 15983" d="M24.982,5.688H22.3L21.206,6.8,19.888,5.484,18.563,6.81l2.652,2.652-1.326,1.326-.663-.663a2.811,2.811,0,0,0-3.977,0L3.979,21.394,2.653,20.068,1.327,21.394l2.652,2.652L2.653,25.371,1.327,24.045,0,25.371,6.63,32l1.326-1.326L6.63,29.348l1.326-1.326,2.652,2.652,1.326-1.326-1.326-1.326L21.877,16.754a2.811,2.811,0,0,0,0-3.977l-.663-.663,1.326-1.326,2.652,2.652,1.326-1.326L25.2,10.793,26.308,9.7V7.014L32,1.326,30.67,0ZM5.3,28.023,3.979,26.7,5.3,25.371,6.63,26.7ZM9.282,26.7,5.3,22.719,6.63,21.394l2.652,2.652,1.326-1.326L7.956,20.068l1.326-1.326,2.652,2.652,1.326-1.326-2.652-2.652,1.326-1.326,2.652,2.652,1.326-1.326-2.652-2.652,1.326-1.326,3.977,3.977ZM20.551,15.428l-.663.663-3.977-3.977.663-.663a.937.937,0,0,1,1.326,0L20.551,14.1A.937.937,0,0,1,20.551,15.428Zm3.881-6.515-.562.554L22.532,8.128l.552-.566h1.348Z" transform="translate(-0.002 0)" fill="#4ab9b1"/>
    </g>
  </g>
</svg>
