<svg xmlns="http://www.w3.org/2000/svg" xmlns:xlink="http://www.w3.org/1999/xlink" width="32" height="32" viewBox="0 0 32 32">
  <defs>
    <clipPath id="clip-path">
      <rect id="Rectangle_8666" data-name="Rectangle 8666" width="32" height="32" transform="translate(335.5 182)" fill="#4ab9b1" stroke="#707070" stroke-width="1"/>
    </clipPath>
  </defs>
  <g id="Mask_Group_1776" data-name="Mask Group 1776" transform="translate(-335.5 -182)" clip-path="url(#clip-path)">
    <g id="deaf" transform="translate(340.387 182)">
      <path id="Path_15980" data-name="Path 15980" d="M17.444,24.438V23.5c0-2.266,1.283-4.091,2.642-6.023,1.467-2.086,2.983-4.242,2.983-7.1a10.313,10.313,0,1,0-20.625,0V24.438a7.5,7.5,0,1,0,15,0Zm-13.125,0V10.375a8.438,8.438,0,1,1,16.875,0c0,2.266-1.283,4.091-2.642,6.023-1.467,2.086-2.983,4.242-2.983,7.1v.938a5.625,5.625,0,1,1-11.25,0Z" transform="translate(-2.444)" fill="#4ab9b1"/>
      <path id="Path_15981" data-name="Path 15981" d="M11.819,18.813V17.381a5.574,5.574,0,0,0,1.875-4.194A5.628,5.628,0,0,0,6.236,7.868a4.683,4.683,0,0,1,9.332.632h1.875a6.563,6.563,0,1,0-13.125,0,6.519,6.519,0,0,0,1.922,4.64l1.326-1.326a4.663,4.663,0,0,1-1.18-1.98,3.752,3.752,0,0,1,5.432,3.353A3.962,3.962,0,0,1,9.944,16.47v2.343a1.875,1.875,0,1,1-3.75,0H4.319a3.75,3.75,0,1,0,7.5,0Z" transform="translate(-0.569 1.875)" fill="#4ab9b1"/>
      <path id="Path_15982" data-name="Path 15982" d="M14.768,11.419l-1.212,1.212-1.212-1.212-1.326,1.326,1.212,1.212-1.212,1.212,1.326,1.326,1.212-1.212,1.212,1.212,1.326-1.326-1.212-1.212,1.212-1.212Z" transform="translate(6.131 11.419)" fill="#4ab9b1"/>
    </g>
  </g>
</svg>
