<svg xmlns="http://www.w3.org/2000/svg" xmlns:xlink="http://www.w3.org/1999/xlink" width="32" height="32" viewBox="0 0 32 32">
  <defs>
    <clipPath id="clip-path">
      <rect id="Rectangle_8673" data-name="Rectangle 8673" width="32" height="32" transform="translate(335.5 183)" fill="#4ab9b1" stroke="#707070" stroke-width="1"/>
    </clipPath>
  </defs>
  <g id="Mask_Group_1783" data-name="Mask Group 1783" transform="translate(-335.5 -183)" clip-path="url(#clip-path)">
    <g id="virus" transform="translate(335.5 183)">
      <path id="Path_16001" data-name="Path 16001" d="M30.125,15.063H28.152a12.105,12.105,0,0,0-.566-2.847l1.765-.731-.718-1.732-1.767.732a12.232,12.232,0,0,0-1.615-2.41l1.356-1.356,1.326,1.326,1.326-1.326L25.281,2.742,23.955,4.068l1.326,1.326L23.925,6.749a12.235,12.235,0,0,0-2.41-1.615l.732-1.767-1.732-.717-.731,1.766a12.105,12.105,0,0,0-2.847-.566V1.875h1.875V0H13.188V1.875h1.875V3.848a12.105,12.105,0,0,0-2.847.566l-.731-1.766-1.732.717.732,1.767a12.234,12.234,0,0,0-2.41,1.615L6.719,5.393,8.045,4.068,6.719,2.742,2.742,6.719,4.068,8.045,5.393,6.719,6.749,8.075a12.235,12.235,0,0,0-1.615,2.41L3.367,9.752l-.717,1.732,1.765.731a12.105,12.105,0,0,0-.566,2.847H1.875V13.188H0v5.625H1.875V16.938H3.848a12.105,12.105,0,0,0,.566,2.847l-1.766.731.718,1.732,1.767-.732a12.232,12.232,0,0,0,1.615,2.41L5.393,25.281,4.068,23.955,2.742,25.281l3.977,3.977,1.326-1.326L6.719,26.607l1.356-1.356a12.232,12.232,0,0,0,2.41,1.615l-.732,1.767,1.732.718.731-1.765a12.105,12.105,0,0,0,2.847.566v1.973H13.188V32h5.625V30.125H16.938V28.152a12.105,12.105,0,0,0,2.847-.566l.731,1.765,1.732-.718-.732-1.767a12.232,12.232,0,0,0,2.41-1.615l1.356,1.356-1.326,1.326,1.326,1.326,3.977-3.977-1.326-1.326-1.326,1.326-1.356-1.356a12.235,12.235,0,0,0,1.615-2.41l1.767.732.718-1.732-1.765-.731a12.105,12.105,0,0,0,.566-2.847h1.973v1.875H32V13.187H30.125ZM16,26.313A10.313,10.313,0,1,1,26.313,16,10.324,10.324,0,0,1,16,26.313Z" transform="translate(0 0)" fill="#4ab9b1"/>
      <path id="Path_16002" data-name="Path 16002" d="M9.406,9.406A2.812,2.812,0,1,0,6.594,6.594,2.816,2.816,0,0,0,9.406,9.406Zm0-3.75a.938.938,0,1,1-.937.938A.939.939,0,0,1,9.406,5.656Z" transform="translate(6.594 3.781)" fill="#4ab9b1"/>
      <path id="Path_16003" data-name="Path 16003" d="M9.406,9.406a2.813,2.813,0,1,0,2.813,2.813A2.816,2.816,0,0,0,9.406,9.406Zm0,3.75a.938.938,0,1,1,.938-.938A.939.939,0,0,1,9.406,13.156Z" transform="translate(6.594 9.406)" fill="#4ab9b1"/>
      <path id="Path_16004" data-name="Path 16004" d="M6.594,6.594A2.813,2.813,0,1,0,9.406,9.406,2.816,2.816,0,0,0,6.594,6.594Zm0,3.75a.938.938,0,1,1,.938-.937A.939.939,0,0,1,6.594,10.344Z" transform="translate(3.781 6.594)" fill="#4ab9b1"/>
      <path id="Path_16005" data-name="Path 16005" d="M9.406,9.406a2.813,2.813,0,1,0,2.813-2.812A2.816,2.816,0,0,0,9.406,9.406Zm3.75,0a.938.938,0,1,1-.938-.937A.939.939,0,0,1,13.156,9.406Z" transform="translate(9.406 6.594)" fill="#4ab9b1"/>
      <path id="Path_16006" data-name="Path 16006" d="M7.531,7.531H9.406V9.406H7.531Z" transform="translate(7.531 7.531)" fill="#4ab9b1"/>
      <path id="Path_16007" data-name="Path 16007" d="M4.719,4.719H6.594V6.594H4.719Z" transform="translate(4.719 4.719)" fill="#4ab9b1"/>
      <path id="Path_16008" data-name="Path 16008" d="M10.344,4.719h1.875V6.594H10.344Z" transform="translate(10.344 4.719)" fill="#4ab9b1"/>
      <path id="Path_16009" data-name="Path 16009" d="M4.719,10.344H6.594v1.875H4.719Z" transform="translate(4.719 10.344)" fill="#4ab9b1"/>
      <path id="Path_16010" data-name="Path 16010" d="M10.344,10.344h1.875v1.875H10.344Z" transform="translate(10.344 10.344)" fill="#4ab9b1"/>
    </g>
  </g>
</svg>
