<svg xmlns="http://www.w3.org/2000/svg" xmlns:xlink="http://www.w3.org/1999/xlink" width="32" height="32" viewBox="0 0 32 32">
  <defs>
    <clipPath id="clip-path">
      <rect id="Rectangle_8660" data-name="Rectangle 8660" width="32" height="32" transform="translate(335.5 182)" fill="#4ab9b1" stroke="#707070" stroke-width="1"/>
    </clipPath>
  </defs>
  <g id="Mask_Group_1770" data-name="Mask Group 1770" transform="translate(-335.5 -182)" clip-path="url(#clip-path)">
    <g id="tooth" transform="translate(337.441 182)">
      <path id="Path_15965" data-name="Path 15965" d="M12.219,12.219V10.344a.937.937,0,1,1,.937-.937h1.875a2.812,2.812,0,1,0-2.812,2.812Z" transform="translate(7.465 6.594)" fill="#4ab9b1"/>
      <path id="Path_15966" data-name="Path 15966" d="M6.594,10.344a2.812,2.812,0,1,0,0-5.625V6.594a.937.937,0,1,1-.937.937H3.781A2.816,2.816,0,0,0,6.594,10.344Z" transform="translate(1.841 4.719)" fill="#4ab9b1"/>
      <path id="Path_15967" data-name="Path 15967" d="M6.295,27.832l.132,1.449a2.991,2.991,0,0,0,5.957,0l.606-6.728a2.049,2.049,0,0,1,4.081,0l.606,6.73a2.991,2.991,0,0,0,5.956,0l.132-1.449A32.093,32.093,0,0,1,27.78,14.189,9.378,9.378,0,0,0,15.03,1.259,9.389,9.389,0,0,0,2.279,14.189,32.092,32.092,0,0,1,6.295,27.832ZM3.073,7.552A7.441,7.441,0,0,1,8.3,2.147,7.534,7.534,0,0,1,16.58,5.21l1.558-1.043A9.38,9.38,0,0,0,16.717,2.5a7.612,7.612,0,0,1,5.045-.356,7.441,7.441,0,0,1,5.223,5.4c.034.14.064.281.091.422a28.447,28.447,0,0,1-9.49-.49,30.47,30.47,0,0,0-14.573.337c.019-.09.038-.18.06-.269ZM17.179,9.314A30.292,30.292,0,0,0,27.2,9.846a7.346,7.346,0,0,1-1.029,3.38A33.929,33.929,0,0,0,21.9,27.662l-.132,1.449a1.116,1.116,0,0,1-2.222,0l-.606-6.73a3.924,3.924,0,0,0-7.816,0l-.606,6.728a1.116,1.116,0,0,1-2.222,0l-.132-1.449A33.929,33.929,0,0,0,3.887,13.226,7.348,7.348,0,0,1,2.856,9.815a28.592,28.592,0,0,1,14.323-.5Z" transform="translate(-0.97 0)" fill="#4ab9b1"/>
      <path id="Path_15968" data-name="Path 15968" d="M8.469,5.657h1.875V7.532H8.469Z" transform="translate(6.528 5.657)" fill="#4ab9b1"/>
      <path id="Path_15969" data-name="Path 15969" d="M6.594,7.532H8.469V9.407H6.594Z" transform="translate(4.653 7.532)" fill="#4ab9b1"/>
    </g>
  </g>
</svg>
