<svg xmlns="http://www.w3.org/2000/svg" xmlns:xlink="http://www.w3.org/1999/xlink" width="32" height="32" viewBox="0 0 32 32">
  <defs>
    <clipPath id="clip-path">
      <rect id="Rectangle_8659" data-name="Rectangle 8659" width="32" height="32" transform="translate(335 181)" fill="#20cebd" stroke="#707070" stroke-width="1"/>
    </clipPath>
  </defs>
  <g id="Mask_Group_1769" data-name="Mask Group 1769" transform="translate(-335 -181)" clip-path="url(#clip-path)">
    <g id="spine" transform="translate(339.843 181)">
      <path id="Path_15962" data-name="Path 15962" d="M4.295,5.366a2.806,2.806,0,0,0-.57,3.728c2.51,3.7,2.907,6.351,3.3,10.77V30.25h3.927a2.861,2.861,0,0,0,5.273,0h3.927V19.8A32.529,32.529,0,0,0,14.227,1.2,2.827,2.827,0,0,0,10.138.628l-.8.651a2.725,2.725,0,0,0-3.283.379,3.1,3.1,0,0,0-.828,3.032l-.929.675ZM18.276,28.375h-3.75v.938a.947.947,0,0,1-1.875,0v-.938H8.9V24.812h2.046a2.844,2.844,0,0,0,5.284,0h2.046Zm0-8.561v3.123h-3.75v.938a.942.942,0,0,1-1.875,0v-.938H8.9V19.848l-.005-.156,2.075-.117a2.937,2.937,0,0,0,2.606,1.631h.038a2.726,2.726,0,0,0,2.625-1.928l2.022-.114C18.266,19.432,18.27,19.612,18.276,19.814Zm-.83-6.895a30.4,30.4,0,0,1,.711,4.374l-3.719.209.042.926a.845.845,0,0,1-.879.9.964.964,0,0,1-.993-.776l-.042-.947-3.777.213a21.021,21.021,0,0,0-.4-2.447l2.009-.544a2.939,2.939,0,0,0,2.872,1.059,2.724,2.724,0,0,0,2.224-2.44Zm-.491-1.81-3.608.978.248.906a.838.838,0,0,1-.665,1.051.974.974,0,0,1-1.146-.566l-.248-.9L7.9,13.563A21.064,21.064,0,0,0,7,11.25L8.856,10.3a2.9,2.9,0,0,0,3.027.443A2.736,2.736,0,0,0,13.56,7.9l1.8-.92A30.468,30.468,0,0,1,16.955,11.109ZM5.459,6.836,7.772,5.16l-.636-.77a1.139,1.139,0,0,1,.212-1.376A.844.844,0,0,1,8.6,3.09l.592.717,2.125-1.723a.952.952,0,0,1,1.377.2A28.72,28.72,0,0,1,14.511,5.3L11.17,7.013l.44.839a.839.839,0,0,1-.441,1.161A.965.965,0,0,1,9.93,8.686L9.5,7.868l-3.329,1.7a15.974,15.974,0,0,0-.892-1.53.919.919,0,0,1,.183-1.206Z" transform="translate(-1.587 0)" fill="#20cebd"/>
      <path id="Path_15963" data-name="Path 15963" d="M5.983,12.876h0a17.444,17.444,0,0,0-1.891-6.82l-1.671.851a15.667,15.667,0,0,1,1.688,6v6.475l1.874-.01c0-.274,0-6.344,0-6.5Z" transform="translate(-2.422 6.056)" fill="#20cebd"/>
      <path id="Path_15964" data-name="Path 15964" d="M16.69,24.317V18.929a35.8,35.8,0,0,0-1.258-9.573,39.683,39.683,0,0,0-3.315-8.174l-1.65.89a37.753,37.753,0,0,1,3.156,7.775,34.075,34.075,0,0,1,1.192,9.107v5.361Z" transform="translate(5.624 1.182)" fill="#20cebd"/>
    </g>
  </g>
</svg>
