<svg xmlns="http://www.w3.org/2000/svg" xmlns:xlink="http://www.w3.org/1999/xlink" width="32" height="32" viewBox="0 0 32 32">
  <defs>
    <clipPath id="clip-path">
      <rect id="Rectangle_8674" data-name="Rectangle 8674" width="32" height="32" transform="translate(335.5 181)" fill="#4ab9b1" stroke="#707070" stroke-width="1"/>
    </clipPath>
  </defs>
  <g id="Mask_Group_1784" data-name="Mask Group 1784" transform="translate(-335.5 -181)" clip-path="url(#clip-path)">
    <g id="tuberculosis" transform="translate(335.5 182)">
      <path id="Path_16011" data-name="Path 16011" d="M14.094,8a2.813,2.813,0,1,0,0,5.625V11.75a.938.938,0,1,1,.938-.937h1.875A2.816,2.816,0,0,0,14.094,8Z" transform="translate(11.281 7)" fill="#4ab9b1"/>
      <path id="Path_16012" data-name="Path 16012" d="M21.625,6.125a2.811,2.811,0,0,0-2.3,1.195,4.689,4.689,0,0,1-.514-2.132V.5H13.188V5.188a4.689,4.689,0,0,1-.514,2.132,2.811,2.811,0,0,0-2.3-1.195A10.356,10.356,0,0,0,0,16.438v11.25A2.816,2.816,0,0,0,2.813,30.5,10.356,10.356,0,0,0,13.188,20.188V14.358A10.426,10.426,0,0,0,16,12.221a10.426,10.426,0,0,0,2.813,2.137v5.829A10.356,10.356,0,0,0,29.188,30.5,2.816,2.816,0,0,0,32,27.688V16.438A10.356,10.356,0,0,0,21.625,6.125ZM11.313,18.2A7.429,7.429,0,0,1,7.92,16.873L6.832,18.4a9.29,9.29,0,0,0,4.48,1.687v.1A8.342,8.342,0,0,1,9.994,24.7l-2.431-.81V21.125H5.688v2.137l-1.766-.589-.593,1.779,5.39,1.8a8.5,8.5,0,0,1-5.907,2.376.939.939,0,0,1-.937-.937V16.437A8.479,8.479,0,0,1,10.375,8a.937.937,0,0,1,.793.439,6.511,6.511,0,0,1-3.393,4.451L6.9,11.143l-1.677.839.763,1.525a6.713,6.713,0,0,1-2.165.054l-.253,1.858a8.455,8.455,0,0,0,7.745-3.05V18.2Zm7.5-6.023A8.631,8.631,0,0,1,16.752,10.2L16,9.191l-.752,1.01a8.631,8.631,0,0,1-2.061,1.977v-2.4a6.573,6.573,0,0,0,1.875-4.592V2.375h1.875V5.188a6.573,6.573,0,0,0,1.875,4.592Zm11.313,15.51a.939.939,0,0,1-.937.938,8.479,8.479,0,0,1-8.5-8.437V8.938A.939.939,0,0,1,21.625,8a8.479,8.479,0,0,1,8.5,8.438Z" transform="translate(0 -0.5)" fill="#4ab9b1"/>
      <path id="Path_16013" data-name="Path 16013" d="M11.281,6.125h1.875V8H11.281Z" transform="translate(11.281 5.125)" fill="#4ab9b1"/>
      <path id="Path_16014" data-name="Path 16014" d="M12.219,11.75h1.875v1.875H12.219Z" transform="translate(12.219 10.75)" fill="#4ab9b1"/>
      <path id="Path_16015" data-name="Path 16015" d="M13.156,10.813h1.875v1.875H13.156Z" transform="translate(13.156 9.813)" fill="#4ab9b1"/>
    </g>
  </g>
</svg>
