<svg xmlns="http://www.w3.org/2000/svg" xmlns:xlink="http://www.w3.org/1999/xlink" width="24" height="24" viewBox="0 0 24 24">
  <defs>
    <clipPath id="clip-path">
      <rect id="Rectangle_8514" data-name="Rectangle 8514" width="24" height="24" transform="translate(291 510)" fill="#9898ae" stroke="#707070" stroke-width="1"/>
    </clipPath>
  </defs>
  <g id="group" transform="translate(-291 -510)" clip-path="url(#clip-path)">
    <g id="fi-rr-apps" transform="translate(291 510)">
      <path id="Path_15774" data-name="Path 15774" d="M7,0H4A4,4,0,0,0,0,4V7a4,4,0,0,0,4,4H7a4,4,0,0,0,4-4V4A4,4,0,0,0,7,0ZM9,7A2,2,0,0,1,7,9H4A2,2,0,0,1,2,7V4A2,2,0,0,1,4,2H7A2,2,0,0,1,9,4Z" fill="#9898ae"/>
      <path id="Path_15775" data-name="Path 15775" d="M20,0H17a4,4,0,0,0-4,4V7a4,4,0,0,0,4,4h3a4,4,0,0,0,4-4V4A4,4,0,0,0,20,0Zm2,7a2,2,0,0,1-2,2H17a2,2,0,0,1-2-2V4a2,2,0,0,1,2-2h3a2,2,0,0,1,2,2Z" fill="#9898ae"/>
      <path id="Path_15776" data-name="Path 15776" d="M7,13H4a4,4,0,0,0-4,4v3a4,4,0,0,0,4,4H7a4,4,0,0,0,4-4V17A4,4,0,0,0,7,13Zm2,7a2,2,0,0,1-2,2H4a2,2,0,0,1-2-2V17a2,2,0,0,1,2-2H7a2,2,0,0,1,2,2Z" fill="#9898ae"/>
      <path id="Path_15777" data-name="Path 15777" d="M20,13H17a4,4,0,0,0-4,4v3a4,4,0,0,0,4,4h3a4,4,0,0,0,4-4V17A4,4,0,0,0,20,13Zm2,7a2,2,0,0,1-2,2H17a2,2,0,0,1-2-2V17a2,2,0,0,1,2-2h3a2,2,0,0,1,2,2Z" fill="#9898ae"/>
    </g>
  </g>
</svg>
