<svg id="symbols" xmlns="http://www.w3.org/2000/svg" width="71.879" height="22.127" viewBox="0 0 71.879 22.127">
  <g id="Group_26479" data-name="Group 26479" transform="translate(25.128 0.368)">
    <g id="Group_26478" data-name="Group 26478">
      <path id="Path_15403" data-name="Path 15403" d="M20.375,16.8,16.722,38.236h5.842L26.22,16.8Z" transform="translate(-16.722 -16.799)" fill="#9898ae"/>
    </g>
  </g>
  <g id="Group_26481" data-name="Group 26481" transform="translate(5.803 0.388)">
    <g id="Group_26480" data-name="Group 26480">
      <path id="Path_15404" data-name="Path 15404" d="M18.288,16.817l-5.722,14.62-.61-2.207c-1.129-2.66-4.332-6.48-8.093-8.887L9.094,38.219l6.182-.011,9.2-21.4Z" transform="translate(-3.862 -16.812)" fill="#9898ae"/>
    </g>
  </g>
  <g id="Group_26483" data-name="Group 26483" transform="translate(0 0.185)">
    <g id="Group_26482" data-name="Group 26482">
      <path id="Path_15405" data-name="Path 15405" d="M11.679,18.419a2.351,2.351,0,0,0-2.546-1.742H.075L0,17.1c7.049,1.71,11.713,5.83,13.649,10.785Z" transform="translate(0 -16.677)" fill="#9898ae"/>
    </g>
  </g>
  <g id="Group_26485" data-name="Group 26485" transform="translate(34.626 0)">
    <g id="Group_26484" data-name="Group 26484">
      <path id="Path_15406" data-name="Path 15406" d="M34.884,21.032a10.786,10.786,0,0,1,4.373.82l.527.248.79-4.646a15.081,15.081,0,0,0-5.234-.9c-5.773,0-9.843,2.908-9.874,7.075-.038,3.079,2.9,4.8,5.117,5.824,2.277,1.052,3.04,1.721,3.029,2.66-.018,1.435-1.815,2.093-3.494,2.093a12.264,12.264,0,0,1-5.5-1.122l-.753-.343-.822,4.8a18.5,18.5,0,0,0,6.51,1.142c6.141,0,10.133-2.873,10.175-7.326.026-2.436-1.533-4.295-4.909-5.82-2.044-.995-3.294-1.656-3.282-2.66C31.536,21.985,32.6,21.032,34.884,21.032Z" transform="translate(-23.043 -16.554)" fill="#9898ae"/>
    </g>
  </g>
  <g id="Group_26487" data-name="Group 26487" transform="translate(50.902 0.392)">
    <g id="Group_26486" data-name="Group 26486">
      <path id="Path_15407" data-name="Path 15407" d="M50.124,16.815H45.61a2.907,2.907,0,0,0-3.061,1.779L33.874,38.24h6.135s1-2.642,1.228-3.22c.672,0,6.633.009,7.482.009.174.748.712,3.211.712,3.211h5.42ZM42.919,30.632c.481-1.231,2.328-5.991,2.328-5.991-.032.059.476-1.24.778-2.047l.394,1.848,1.354,6.19Z" transform="translate(-33.874 -16.815)" fill="#9898ae"/>
    </g>
  </g>
</svg>
