<svg xmlns="http://www.w3.org/2000/svg" xmlns:xlink="http://www.w3.org/1999/xlink" width="16" height="16" viewBox="0 0 16 16">
  <defs>
    <clipPath id="clip-path">
      <rect id="Rectangle_8149" data-name="Rectangle 8149" width="16" height="16" fill="#626281" stroke="#707070" stroke-width="1"/>
    </clipPath>
  </defs>
  <g id="DURATION" clip-path="url(#clip-path)">
    <path id="fi-rr-time-half-past" d="M7.333,9.149a1.323,1.323,0,0,1,0-2.3V4.667a.667.667,0,0,1,1.333,0V6.851a1.323,1.323,0,0,1,0,2.3v1.518a.667.667,0,1,1-1.333,0ZM8,0A.667.667,0,1,0,8,1.333,6.667,6.667,0,0,1,8,14.667.667.667,0,1,0,8,16,8,8,0,1,0,8,0ZM1.218,4.523a.667.667,0,1,0,.667.667A.667.667,0,0,0,1.218,4.523ZM1.333,8a.667.667,0,1,0-.667.667A.667.667,0,0,0,1.333,8ZM2.814,2.138a.667.667,0,1,0,.667.667A.667.667,0,0,0,2.814,2.138ZM5.186.561a.667.667,0,1,0,.667.667A.667.667,0,0,0,5.186.561ZM1.218,10.144a.667.667,0,1,0,.667.667A.667.667,0,0,0,1.218,10.144Zm1.6,2.385a.667.667,0,1,0,.667.667A.667.667,0,0,0,2.814,12.529Zm2.372,1.577a.667.667,0,1,0,.667.667.667.667,0,0,0-.667-.667Z" transform="translate(-0.315)" fill="#626281"/>
  </g>
</svg>
