<svg xmlns="http://www.w3.org/2000/svg" xmlns:xlink="http://www.w3.org/1999/xlink" width="24" height="24" viewBox="0 0 24 24">
  <defs>
    <clipPath id="clip-path">
      <rect id="Rectangle_8511" data-name="Rectangle 8511" width="24" height="24" transform="translate(1682 1142)" fill="#151534" stroke="#707070" stroke-width="1"/>
    </clipPath>
  </defs>
  <g id="price" transform="translate(-1682 -1142)" clip-path="url(#clip-path)">
    <g id="price-tag-3-line_1_" data-name="price-tag-3-line (1)" transform="translate(1682 1142)">
      <path id="Path_15767" data-name="Path 15767" d="M0,0H24V24H0Z" fill="none"/>
      <path id="Path_15768" data-name="Path 15768" d="M10.9,2.1l9.9,1.415,1.414,9.9-9.192,9.192a1,1,0,0,1-1.414,0l-9.9-9.9a1,1,0,0,1,0-1.414Zm.707,2.122L3.828,12l8.486,8.485,7.778-7.778-1.06-7.425-7.425-1.06Zm2.12,6.364a2,2,0,1,1,2.829,0A2,2,0,0,1,13.727,10.586Z" fill="#151534"/>
    </g>
  </g>
</svg>
