<svg xmlns="http://www.w3.org/2000/svg" xmlns:xlink="http://www.w3.org/1999/xlink" width="24" height="24" viewBox="0 0 24 24">
  <defs>
    <clipPath id="clip-path">
      <rect id="Rectangle_8537" data-name="Rectangle 8537" width="24" height="24" transform="translate(1673 504)" fill="#151534" stroke="#707070" stroke-width="1"/>
    </clipPath>
  </defs>
  <g id="Mask_Group_1706" data-name="Mask Group 1706" transform="translate(-1673 -504)" clip-path="url(#clip-path)">
    <g id="road-map-line" transform="translate(1673 504)">
      <path id="Path_15789" data-name="Path 15789" d="M0,0H24V24H0Z" fill="none"/>
      <path id="Path_15790" data-name="Path 15790" d="M4,6.143V18.967L9.065,16.8l6,3L20,17.68V4.857L21.3,4.3a.5.5,0,0,1,.7.46V19l-7,3L9,19,2.7,21.7a.5.5,0,0,1-.7-.46V7Zm12.243,5.1L12,15.485,7.757,11.243a6,6,0,1,1,8.486,0ZM12,12.657l2.828-2.829a4,4,0,1,0-5.656,0Z" fill="#151534"/>
    </g>
  </g>
</svg>
