<svg xmlns="http://www.w3.org/2000/svg" xmlns:xlink="http://www.w3.org/1999/xlink" width="24" height="24" viewBox="0 0 24 24">
  <defs>
    <clipPath id="clip-path">
      <rect id="Rectangle_8509" data-name="Rectangle 8509" width="24" height="24" fill="#151534" stroke="#707070" stroke-width="1"/>
    </clipPath>
  </defs>
  <g id="service" clip-path="url(#clip-path)">
    <path id="fi-rr-stethoscope" d="M0,9a3,3,0,1,1,4,2.816V16a6,6,0,1,0,12,0v-.08A7.006,7.006,0,0,1,10,9V5a5.006,5.006,0,0,1,5-5,1,1,0,1,1,0,2,3,3,0,0,0-3,3V9A5,5,0,1,0,22,9V5a3,3,0,0,0-3-3,1,1,0,1,1,0-2,5.006,5.006,0,0,1,5,5V9a7.006,7.006,0,0,1-6,6.92V16A8,8,0,1,1,2,16V11.816A3,3,0,0,1,0,9Zm3,1A1,1,0,1,0,2,9,1,1,0,0,0,3,10Z" transform="translate(0)" fill="#151534"/>
  </g>
</svg>
