<svg xmlns="http://www.w3.org/2000/svg" xmlns:xlink="http://www.w3.org/1999/xlink" width="24" height="24" viewBox="0 0 24 24">
  <defs>
    <clipPath id="clip-path">
      <rect id="Rectangle_8703" data-name="Rectangle 8703" width="24" height="24" transform="translate(1060 817)" fill="#9898ae" stroke="#707070" stroke-width="1"/>
    </clipPath>
  </defs>
  <g id="Mask_Group_1800" data-name="Mask Group 1800" transform="translate(-1060 -817)" clip-path="url(#clip-path)">
    <g id="efficiency" transform="translate(1060 817)">
      <g id="Group_27719" data-name="Group 27719">
        <path id="Path_16056" data-name="Path 16056" d="M18.239,9.924a.351.351,0,0,1-.3-.168l-.024-.038a.352.352,0,0,1,.6-.37l.026.042a.351.351,0,0,1-.3.535ZM16.967,8.369a.394.394,0,0,1-.272-.124.352.352,0,0,1,.476-.518l.036.033a.352.352,0,0,1-.239.61ZM15.321,7.217a.435.435,0,0,1-.2-.059.352.352,0,1,1,.316-.628.406.406,0,0,1,.2.181.352.352,0,0,1-.316.506Zm-1.9-.659a.608.608,0,0,1-.112-.015.352.352,0,0,1,.131-.691.409.409,0,0,1,.239.116.352.352,0,0,1-.258.59Z" fill="#9898ae"/>
      </g>
      <g id="Group_27720" data-name="Group 27720">
        <path id="Path_16057" data-name="Path 16057" d="M22.5,16.1l-.749-.616a9.981,9.981,0,0,0,0-4.242l.762-.65a.352.352,0,0,0,.1-.4l-.89-2.1a.352.352,0,0,0-.358-.212l-.967.094a9.983,9.983,0,0,0-3-2.995l.079-1a.352.352,0,0,0-.219-.354l-2.111-.852a.351.351,0,0,0-.4.1l-.619.751a9.927,9.927,0,0,0-1.762-.219V2.115h1.2a1.057,1.057,0,1,0,0-2.115H10.447A1.068,1.068,0,0,0,9.389,1.057a1.068,1.068,0,0,0,1.057,1.057h1.2V3.408a9.96,9.96,0,0,0-1.775.222l-.651-.762a.352.352,0,0,0-.4-.1l-2.1.89a.352.352,0,0,0-.212.358l.094.966a9.983,9.983,0,0,0-3,3l-1-.079a.352.352,0,0,0-.354.219L1.4,10.24a.352.352,0,0,0,.1.4l.749.616a9.981,9.981,0,0,0,0,4.242l-.762.65a.352.352,0,0,0-.1.4l.89,2.1a.352.352,0,0,0,.358.212l.967-.094a9.987,9.987,0,0,0,3,3l-.079,1a.352.352,0,0,0,.219.354l2.111.852a.352.352,0,0,0,.4-.1l.618-.751a9.986,9.986,0,0,0,4.24,0l.651.762a.352.352,0,0,0,.4.1l2.1-.89a.352.352,0,0,0,.212-.358l-.094-.966a9.986,9.986,0,0,0,3-3l1,.078a.352.352,0,0,0,.354-.219L22.6,16.5A.351.351,0,0,0,22.5,16.1ZM10.093,1.057A.355.355,0,0,1,10.447.7h3.106a.354.354,0,1,1,0,.708H10.447A.355.355,0,0,1,10.093,1.057Zm11.1,17.056-.953-.075a.352.352,0,0,0-.328.167,9.272,9.272,0,0,1-3.068,3.069.352.352,0,0,0-.167.334l.09.926-1.621.689-.622-.728a.352.352,0,0,0-.35-.113,9.27,9.27,0,0,1-4.337,0,.351.351,0,0,0-.354.118l-.593.72-1.633-.659.075-.955a.351.351,0,0,0-.168-.328A9.273,9.273,0,0,1,4.1,18.216a.352.352,0,0,0-.334-.166l-.927.09-.688-1.621.728-.621a.352.352,0,0,0,.113-.35,9.265,9.265,0,0,1,0-4.339.352.352,0,0,0-.118-.354l-.718-.591.659-1.633.953.075a.351.351,0,0,0,.328-.167A9.268,9.268,0,0,1,7.157,5.469a.352.352,0,0,0,.167-.334l-.09-.926,1.621-.689.622.728a.352.352,0,0,0,.35.113,9.276,9.276,0,0,1,4.337,0,.352.352,0,0,0,.354-.118l.593-.72,1.633.659-.075.956a.352.352,0,0,0,.168.328A9.268,9.268,0,0,1,19.9,8.529a.352.352,0,0,0,.334.166l.927-.09.688,1.62-.728.621a.352.352,0,0,0-.113.35,9.266,9.266,0,0,1,0,4.339.352.352,0,0,0,.118.354l.717.591Z" fill="#9898ae"/>
        <path id="Path_16058" data-name="Path 16058" d="M18.852,10.534a.35.35,0,0,0-.142.02L14.7,12.014c.641-1.1,1.218-2.138,1.342-2.362a.354.354,0,0,0-.477-.478c-.281.155-1.85,1.025-3.217,1.836V6.068A.352.352,0,0,0,12,5.716a7.678,7.678,0,0,0-4.809,1.7.352.352,0,0,0,.442.547,6.973,6.973,0,0,1,4.016-1.533v5a10.147,10.147,0,0,0-1.364.931,1.811,1.811,0,1,0,2.559,2.564,15.164,15.164,0,0,0,1.3-1.962l4.506-1.641A6.956,6.956,0,1,1,6.566,9.032a.352.352,0,0,0-.549-.439A7.656,7.656,0,1,0,19.2,10.765.351.351,0,0,0,18.852,10.534Zm-6.5,3.9a1.108,1.108,0,1,1-1.566-1.568,40.462,40.462,0,0,1,4.04-2.465A40.432,40.432,0,0,1,12.348,14.43Z" fill="#9898ae"/>
      </g>
    </g>
  </g>
</svg>
