<svg xmlns="http://www.w3.org/2000/svg" xmlns:xlink="http://www.w3.org/1999/xlink" width="24" height="24" viewBox="0 0 24 24">
  <defs>
    <clipPath id="clip-path">
      <rect id="Rectangle_8702" data-name="Rectangle 8702" width="24" height="24" transform="translate(1233 817)" fill="#626281" stroke="#707070" stroke-width="1"/>
    </clipPath>
  </defs>
  <g id="Mask_Group_1799" data-name="Mask Group 1799" transform="translate(-1233 -817)" clip-path="url(#clip-path)">
    <g id="phytotherapy" transform="translate(1233 820.241)">
      <path id="Path_16049" data-name="Path 16049" d="M4.1,8.006l.5.5.918-.918L9.93,12,6.035,15.9A3.124,3.124,0,0,1,1.616,11.48L3.93,9.166l-.5-.5L1.119,10.983A3.828,3.828,0,1,0,6.532,16.4L10.924,12,5.511,6.591Zm0,0" fill="#626281"/>
      <path id="Path_16050" data-name="Path 16050" d="M22.881,10.983,18.489,6.591,16.506,8.574l.5.5,1.485-1.485,3.895,3.895A3.124,3.124,0,1,1,17.965,15.9L14.07,12l2.27-2.27-.5-.5L13.076,12,17.468,16.4a3.828,3.828,0,1,0,5.413-5.413Zm0,0" fill="#626281"/>
      <path id="Path_16051" data-name="Path 16051" d="M17.9,2.178V.947H16.665a4.55,4.55,0,0,0-4.129,2.648A5.335,5.335,0,0,0,7.5,0H6.1V1.4a5.332,5.332,0,0,0,5.326,5.326h.692v4.5h.7v-4.5h.528A4.549,4.549,0,0,0,17.9,2.178ZM16.665,1.65h.528v.528a3.845,3.845,0,0,1-3.84,3.84h-.031l1.606-1.605-.5-.5L12.825,5.521V5.49a3.844,3.844,0,0,1,3.84-3.84ZM6.807,1.4V.7H7.5a4.628,4.628,0,0,1,4.623,4.623v.2L10.516,3.916l-.5.5,1.605,1.606h-.2A4.628,4.628,0,0,1,6.807,1.4Zm0,0" fill="#626281"/>
      <path id="Path_16052" data-name="Path 16052" d="M3.826,16.345a2.638,2.638,0,0,1-1.878-.778l.5-.5a1.952,1.952,0,0,0,2.761,0l1.657-1.657.5.5L5.7,15.567A2.638,2.638,0,0,1,3.826,16.345Zm3.866-2.766-.5-.5.5-.5.5.5Zm.829-.829-.5-.5.5-.5.5.5Zm0,0" fill="#626281"/>
      <path id="Path_16053" data-name="Path 16053" d="M20.174,16.345a2.638,2.638,0,0,1-1.878-.778l.5-.5a1.951,1.951,0,0,0,3.28-.931l.685.161a2.654,2.654,0,0,1-2.584,2.045Zm2.653-2.58-.7-.02c0-.019,0-.037,0-.056a1.967,1.967,0,0,0-.074-.534l.677-.191a2.676,2.676,0,0,1,.1.725C22.829,13.715,22.828,13.74,22.827,13.765Zm-.922-.978a1.944,1.944,0,0,0-.351-.478l.5-.5a2.651,2.651,0,0,1,.478.651Zm0,0" fill="#626281"/>
      <path id="Path_16054" data-name="Path 16054" d="M10.343,3.5a3.408,3.408,0,0,0-.713-.8l.444-.545a4.1,4.1,0,0,1,.86.961ZM9.285,2.457a3.387,3.387,0,0,0-.569-.285l.254-.656a4.076,4.076,0,0,1,.687.344Zm-.973-.413a3.361,3.361,0,0,0-.629-.094l.038-.7a4.084,4.084,0,0,1,.76.114Zm0,0" fill="#626281"/>
      <path id="Path_16055" data-name="Path 16055" d="M15.514,4.673l-.461-.531a2.6,2.6,0,0,0,.876-1.622l.7.092a3.3,3.3,0,0,1-1.113,2.061Zm0,0" fill="#626281"/>
    </g>
  </g>
</svg>
